# MagicaVoxel @ Ephtracy

# group
o 

# material
mtllib carcel.mtl
usemtl palette

# normals
vn -1 0 0
vn 1 0 0
vn 0 0 1
vn 0 0 -1
vn 0 -1 0
vn 0 1 0

# texcoords
vt 0.974609 0.5
vt 0.982422 0.5
vt 0.986328 0.5

# verts
v 0 2 0
v 0 2 -1.6
v 0 2.2 -0.2
v 0 2.2 -1.4
v 0 2.4 -0.4
v 0 2.4 -0.5
v 0 2.4 -1.1
v 0 2.4 -1.2
v 0 2.5 -0.4
v 0 2.5 -0.5
v 0 2.5 -1.1
v 0 2.5 -1.2
v 0 3.1 -0.4
v 0 3.1 -0.5
v 0 3.1 -1.1
v 0 3.1 -1.2
v 0 3.2 -0.4
v 0 3.2 -0.5
v 0 3.2 -1.1
v 0 3.2 -1.2
v 0 3.4 -0.2
v 0 3.4 -1.4
v 0 3.6 0
v 0 3.6 -1.6
v 1.4 2 -0.2
v 1.4 2 -1.4
v 1.4 2.2 -0.2
v 1.4 2.2 -1.4
v 1.4 3.4 -0.2
v 1.4 3.4 -1.4
v 1.4 3.6 -0.2
v 1.4 3.6 -1.4
v 0.2 2 -0.2
v 0.2 2 -1.4
v 0.2 2.2 -0.2
v 0.2 2.2 -1.4
v 0.2 3.4 -0.2
v 0.2 3.4 -1.4
v 0.2 3.6 -0.2
v 0.2 3.6 -1.4
v 1.6 2 0
v 1.6 2 -1.6
v 1.6 2.2 -0.2
v 1.6 2.2 -1.4
v 1.6 2.4 -0.4
v 1.6 2.4 -0.5
v 1.6 2.4 -1.1
v 1.6 2.4 -1.2
v 1.6 2.5 -0.4
v 1.6 2.5 -0.5
v 1.6 2.5 -1.1
v 1.6 2.5 -1.2
v 1.6 3.1 -0.4
v 1.6 3.1 -0.5
v 1.6 3.1 -1.1
v 1.6 3.1 -1.2
v 1.6 3.2 -0.4
v 1.6 3.2 -0.5
v 1.6 3.2 -1.1
v 1.6 3.2 -1.2
v 1.6 3.4 -0.2
v 1.6 3.4 -1.4
v 1.6 3.6 0
v 1.6 3.6 -1.6
v 0 2 0
v 0 3.6 0
v 0.2 2.2 0
v 0.2 3.4 0
v 0.4 2.4 0
v 0.4 2.5 0
v 0.4 3.1 0
v 0.4 3.2 0
v 0.5 2.4 0
v 0.5 2.5 0
v 0.5 3.1 0
v 0.5 3.2 0
v 1.1 2.4 0
v 1.1 2.5 0
v 1.1 3.1 0
v 1.1 3.2 0
v 1.2 2.4 0
v 1.2 2.5 0
v 1.2 3.1 0
v 1.2 3.2 0
v 1.4 2.2 0
v 1.4 3.4 0
v 1.6 2 0
v 1.6 3.6 0
v 0.2 2 -1.4
v 0.2 2.2 -1.4
v 0.2 3.4 -1.4
v 0.2 3.6 -1.4
v 1.4 2 -1.4
v 1.4 2.2 -1.4
v 1.4 3.4 -1.4
v 1.4 3.6 -1.4
v 0.2 2 -0.2
v 0.2 2.2 -0.2
v 0.2 3.4 -0.2
v 0.2 3.6 -0.2
v 1.4 2 -0.2
v 1.4 2.2 -0.2
v 1.4 3.4 -0.2
v 1.4 3.6 -0.2
v 0 2 -1.6
v 0 3.6 -1.6
v 0.2 2.2 -1.6
v 0.2 3.4 -1.6
v 0.4 2.4 -1.6
v 0.4 2.5 -1.6
v 0.4 3.1 -1.6
v 0.4 3.2 -1.6
v 0.5 2.4 -1.6
v 0.5 2.5 -1.6
v 0.5 3.1 -1.6
v 0.5 3.2 -1.6
v 1.1 2.4 -1.6
v 1.1 2.5 -1.6
v 1.1 3.1 -1.6
v 1.1 3.2 -1.6
v 1.2 2.4 -1.6
v 1.2 2.5 -1.6
v 1.2 3.1 -1.6
v 1.2 3.2 -1.6
v 1.4 2.2 -1.6
v 1.4 3.4 -1.6
v 1.6 2 -1.6
v 1.6 3.6 -1.6
v 0 2 0
v 1.6 2 0
v 0.2 2 -0.2
v 1.4 2 -0.2
v 0.2 2 -1.4
v 1.4 2 -1.4
v 0 2 -1.6
v 1.6 2 -1.6
v 0 3.6 0
v 1.6 3.6 0
v 0.2 3.6 -0.2
v 1.4 3.6 -0.2
v 0.2 3.6 -1.4
v 1.4 3.6 -1.4
v 0 3.6 -1.6
v 1.6 3.6 -1.6

# faces
f 3/2/1 2/2/1 1/2/1
f 4/2/1 2/2/1 3/2/1
f 5/1/1 4/1/1 3/1/1
f 6/1/1 4/1/1 5/1/1
f 7/1/1 4/1/1 6/1/1
f 8/1/1 4/1/1 7/1/1
f 9/1/1 5/1/1 3/1/1
f 9/3/1 6/3/1 5/3/1
f 10/1/1 7/1/1 6/1/1
f 10/3/1 6/3/1 9/3/1
f 11/3/1 8/3/1 7/3/1
f 11/1/1 7/1/1 10/1/1
f 12/1/1 4/1/1 8/1/1
f 12/3/1 8/3/1 11/3/1
f 13/1/1 11/1/1 10/1/1
f 13/1/1 10/1/1 9/1/1
f 13/1/1 12/1/1 11/1/1
f 13/1/1 9/1/1 3/1/1
f 14/1/1 12/1/1 13/1/1
f 15/1/1 12/1/1 14/1/1
f 16/1/1 4/1/1 12/1/1
f 16/1/1 12/1/1 15/1/1
f 17/1/1 13/1/1 3/1/1
f 17/3/1 14/3/1 13/3/1
f 18/1/1 15/1/1 14/1/1
f 18/3/1 14/3/1 17/3/1
f 19/3/1 16/3/1 15/3/1
f 19/1/1 15/1/1 18/1/1
f 20/1/1 4/1/1 16/1/1
f 20/3/1 16/3/1 19/3/1
f 21/2/1 3/2/1 1/2/1
f 21/1/1 17/1/1 3/1/1
f 21/1/1 20/1/1 19/1/1
f 21/1/1 18/1/1 17/1/1
f 21/1/1 19/1/1 18/1/1
f 22/1/1 4/1/1 20/1/1
f 22/1/1 20/1/1 21/1/1
f 22/2/1 2/2/1 4/2/1
f 23/2/1 21/2/1 1/2/1
f 23/2/1 22/2/1 21/2/1
f 24/2/1 2/2/1 22/2/1
f 24/2/1 22/2/1 23/2/1
f 27/2/1 26/2/1 25/2/1
f 28/2/1 26/2/1 27/2/1
f 29/1/1 28/1/1 27/1/1
f 30/1/1 28/1/1 29/1/1
f 31/2/1 30/2/1 29/2/1
f 32/2/1 30/2/1 31/2/1
f 33/2/2 34/2/2 35/2/2
f 35/2/2 34/2/2 36/2/2
f 35/1/2 36/1/2 37/1/2
f 37/1/2 36/1/2 38/1/2
f 37/2/2 38/2/2 39/2/2
f 39/2/2 38/2/2 40/2/2
f 41/2/2 42/2/2 43/2/2
f 43/2/2 42/2/2 44/2/2
f 43/1/2 44/1/2 45/1/2
f 45/1/2 44/1/2 46/1/2
f 46/1/2 44/1/2 47/1/2
f 47/1/2 44/1/2 48/1/2
f 43/1/2 45/1/2 49/1/2
f 45/3/2 46/3/2 49/3/2
f 46/1/2 47/1/2 50/1/2
f 49/3/2 46/3/2 50/3/2
f 47/3/2 48/3/2 51/3/2
f 50/1/2 47/1/2 51/1/2
f 48/1/2 44/1/2 52/1/2
f 51/3/2 48/3/2 52/3/2
f 50/1/2 51/1/2 53/1/2
f 49/1/2 50/1/2 53/1/2
f 51/1/2 52/1/2 53/1/2
f 43/1/2 49/1/2 53/1/2
f 53/1/2 52/1/2 54/1/2
f 54/1/2 52/1/2 55/1/2
f 52/1/2 44/1/2 56/1/2
f 55/1/2 52/1/2 56/1/2
f 43/1/2 53/1/2 57/1/2
f 53/3/2 54/3/2 57/3/2
f 54/1/2 55/1/2 58/1/2
f 57/3/2 54/3/2 58/3/2
f 55/3/2 56/3/2 59/3/2
f 58/1/2 55/1/2 59/1/2
f 56/1/2 44/1/2 60/1/2
f 59/3/2 56/3/2 60/3/2
f 41/2/2 43/2/2 61/2/2
f 43/1/2 57/1/2 61/1/2
f 59/1/2 60/1/2 61/1/2
f 57/1/2 58/1/2 61/1/2
f 58/1/2 59/1/2 61/1/2
f 60/1/2 44/1/2 62/1/2
f 61/1/2 60/1/2 62/1/2
f 44/2/2 42/2/2 62/2/2
f 41/2/2 61/2/2 63/2/2
f 61/2/2 62/2/2 63/2/2
f 62/2/2 42/2/2 64/2/2
f 63/2/2 62/2/2 64/2/2
f 67/2/3 66/2/3 65/2/3
f 68/2/3 66/2/3 67/2/3
f 69/1/3 68/1/3 67/1/3
f 70/1/3 68/1/3 69/1/3
f 71/1/3 68/1/3 70/1/3
f 72/1/3 68/1/3 71/1/3
f 73/1/3 69/1/3 67/1/3
f 73/3/3 70/3/3 69/3/3
f 74/1/3 71/1/3 70/1/3
f 74/3/3 70/3/3 73/3/3
f 75/3/3 72/3/3 71/3/3
f 75/1/3 71/1/3 74/1/3
f 76/1/3 68/1/3 72/1/3
f 76/3/3 72/3/3 75/3/3
f 77/1/3 75/1/3 74/1/3
f 77/1/3 74/1/3 73/1/3
f 77/1/3 76/1/3 75/1/3
f 77/1/3 73/1/3 67/1/3
f 78/1/3 76/1/3 77/1/3
f 79/1/3 76/1/3 78/1/3
f 80/1/3 68/1/3 76/1/3
f 80/1/3 76/1/3 79/1/3
f 81/1/3 77/1/3 67/1/3
f 81/3/3 78/3/3 77/3/3
f 82/1/3 79/1/3 78/1/3
f 82/3/3 78/3/3 81/3/3
f 83/3/3 80/3/3 79/3/3
f 83/1/3 79/1/3 82/1/3
f 84/1/3 68/1/3 80/1/3
f 84/3/3 80/3/3 83/3/3
f 85/2/3 67/2/3 65/2/3
f 85/1/3 81/1/3 67/1/3
f 85/1/3 84/1/3 83/1/3
f 85/1/3 82/1/3 81/1/3
f 85/1/3 83/1/3 82/1/3
f 86/1/3 68/1/3 84/1/3
f 86/1/3 84/1/3 85/1/3
f 86/2/3 66/2/3 68/2/3
f 87/2/3 85/2/3 65/2/3
f 87/2/3 86/2/3 85/2/3
f 88/2/3 66/2/3 86/2/3
f 88/2/3 86/2/3 87/2/3
f 93/2/3 90/2/3 89/2/3
f 94/1/3 91/1/3 90/1/3
f 94/2/3 90/2/3 93/2/3
f 95/2/3 92/2/3 91/2/3
f 95/1/3 91/1/3 94/1/3
f 96/2/3 92/2/3 95/2/3
f 97/2/4 98/2/4 101/2/4
f 98/1/4 99/1/4 102/1/4
f 101/2/4 98/2/4 102/2/4
f 99/2/4 100/2/4 103/2/4
f 102/1/4 99/1/4 103/1/4
f 103/2/4 100/2/4 104/2/4
f 105/2/4 106/2/4 107/2/4
f 107/2/4 106/2/4 108/2/4
f 107/1/4 108/1/4 109/1/4
f 109/1/4 108/1/4 110/1/4
f 110/1/4 108/1/4 111/1/4
f 111/1/4 108/1/4 112/1/4
f 107/1/4 109/1/4 113/1/4
f 109/3/4 110/3/4 113/3/4
f 110/1/4 111/1/4 114/1/4
f 113/3/4 110/3/4 114/3/4
f 111/3/4 112/3/4 115/3/4
f 114/1/4 111/1/4 115/1/4
f 112/1/4 108/1/4 116/1/4
f 115/3/4 112/3/4 116/3/4
f 114/1/4 115/1/4 117/1/4
f 113/1/4 114/1/4 117/1/4
f 115/1/4 116/1/4 117/1/4
f 107/1/4 113/1/4 117/1/4
f 117/1/4 116/1/4 118/1/4
f 118/1/4 116/1/4 119/1/4
f 116/1/4 108/1/4 120/1/4
f 119/1/4 116/1/4 120/1/4
f 107/1/4 117/1/4 121/1/4
f 117/3/4 118/3/4 121/3/4
f 118/1/4 119/1/4 122/1/4
f 121/3/4 118/3/4 122/3/4
f 119/3/4 120/3/4 123/3/4
f 122/1/4 119/1/4 123/1/4
f 120/1/4 108/1/4 124/1/4
f 123/3/4 120/3/4 124/3/4
f 105/2/4 107/2/4 125/2/4
f 107/1/4 121/1/4 125/1/4
f 123/1/4 124/1/4 125/1/4
f 121/1/4 122/1/4 125/1/4
f 122/1/4 123/1/4 125/1/4
f 124/1/4 108/1/4 126/1/4
f 125/1/4 124/1/4 126/1/4
f 108/2/4 106/2/4 126/2/4
f 105/2/4 125/2/4 127/2/4
f 125/2/4 126/2/4 127/2/4
f 126/2/4 106/2/4 128/2/4
f 127/2/4 126/2/4 128/2/4
f 131/2/5 130/2/5 129/2/5
f 132/2/5 130/2/5 131/2/5
f 133/2/5 131/2/5 129/2/5
f 134/2/5 130/2/5 132/2/5
f 135/2/5 133/2/5 129/2/5
f 135/2/5 134/2/5 133/2/5
f 136/2/5 130/2/5 134/2/5
f 136/2/5 134/2/5 135/2/5
f 137/2/6 138/2/6 139/2/6
f 139/2/6 138/2/6 140/2/6
f 137/2/6 139/2/6 141/2/6
f 140/2/6 138/2/6 142/2/6
f 137/2/6 141/2/6 143/2/6
f 141/2/6 142/2/6 143/2/6
f 142/2/6 138/2/6 144/2/6
f 143/2/6 142/2/6 144/2/6
