# MagicaVoxel @ Ephtracy

# group
o 

# material
mtllib cubocara.mtl
usemtl palette

# normals
vn -1 0 0
vn 1 0 0
vn 0 0 1
vn 0 0 -1
vn 0 -1 0
vn 0 1 0

# texcoords
vt 0.0136719 0.5
vt 0.0175781 0.5
vt 0.0214844 0.5
vt 0.0410156 0.5
vt 0.0644531 0.5
vt 0.208984 0.5
vt 0.212891 0.5
vt 0.216797 0.5
vt 0.259766 0.5
vt 0.263672 0.5
vt 0.267578 0.5
vt 0.533203 0.5
vt 0.537109 0.5
vt 0.541016 0.5
vt 0.544922 0.5
vt 0.548828 0.5
vt 0.744141 0.5
vt 0.798828 0.5
vt 0.802734 0.5
vt 0.806641 0.5

# verts
v 0 3.2 0
v 0 3.2 -0.4
v 0 3.4 0
v 0 3.4 -0.4
v 0 3.5 0
v 0 3.5 -0.4
v 0.1 2.5 0
v 0.1 2.5 -0.4
v 0.1 3.1 0
v 0.1 3.1 -0.4
v 0.1 3.2 0
v 0.1 3.2 -0.4
v 0.1 3.5 0
v 0.1 3.5 -0.4
v 0.1 3.6 0
v 0.1 3.6 -0.4
v 0.2 2.1 0
v 0.2 2.1 -0.4
v 0.2 2.5 0
v 0.2 2.5 -0.4
v 0.3 2 0
v 0.3 2 -0.4
v 0.3 2.1 0
v 0.3 2.1 -0.4
v 0.4 3.2 0
v 0.4 3.2 -0.4
v 0.4 3.4 0
v 0.4 3.4 -0.4
v 0.4 3.5 0
v 0.4 3.5 -0.4
v 0.5 3.1 0
v 0.5 3.1 -0.1
v 0.5 3.1 -0.4
v 0.5 3.2 0
v 0.5 3.2 -0.4
v 0.5 3.5 0
v 0.5 3.5 -0.4
v 0.5 3.6 0
v 0.5 3.6 -0.4
v 0.8 3.2 0
v 0.8 3.2 -0.4
v 0.8 3.4 0
v 0.8 3.4 -0.4
v 0.8 3.5 0
v 0.8 3.5 -0.4
v 0.9 3.1 0
v 0.9 3.1 -0.1
v 0.9 3.1 -0.4
v 0.9 3.2 0
v 0.9 3.2 -0.4
v 0.9 3.5 0
v 0.9 3.5 -0.4
v 0.9 3.6 0
v 0.9 3.6 -0.4
v 1.2 3.2 0
v 1.2 3.2 -0.4
v 1.2 3.4 0
v 1.2 3.4 -0.4
v 1.2 3.5 0
v 1.2 3.5 -0.4
v 1.3 3.1 0
v 1.3 3.1 -0.1
v 1.3 3.1 -0.4
v 1.3 3.2 0
v 1.3 3.2 -0.4
v 1.3 3.5 0
v 1.3 3.5 -0.4
v 1.3 3.6 0
v 1.3 3.6 -0.4
v 0.2 3.1 0
v 0.2 3.1 -0.1
v 0.2 3.1 -0.4
v 0.2 3.2 0
v 0.2 3.2 -0.4
v 0.2 3.5 0
v 0.2 3.5 -0.4
v 0.2 3.6 0
v 0.2 3.6 -0.4
v 0.3 3.2 0
v 0.3 3.2 -0.4
v 0.3 3.4 0
v 0.3 3.4 -0.4
v 0.3 3.5 0
v 0.3 3.5 -0.4
v 0.6 3.1 0
v 0.6 3.1 -0.1
v 0.6 3.1 -0.4
v 0.6 3.2 0
v 0.6 3.2 -0.4
v 0.6 3.5 0
v 0.6 3.5 -0.4
v 0.6 3.6 0
v 0.6 3.6 -0.4
v 0.7 3.2 0
v 0.7 3.2 -0.4
v 0.7 3.4 0
v 0.7 3.4 -0.4
v 0.7 3.5 0
v 0.7 3.5 -0.4
v 1 3.1 0
v 1 3.1 -0.1
v 1 3.1 -0.4
v 1 3.2 0
v 1 3.2 -0.4
v 1 3.5 0
v 1 3.5 -0.4
v 1 3.6 0
v 1 3.6 -0.4
v 1.1 3.2 0
v 1.1 3.2 -0.4
v 1.1 3.4 0
v 1.1 3.4 -0.4
v 1.1 3.5 0
v 1.1 3.5 -0.4
v 1.2 2 0
v 1.2 2 -0.4
v 1.2 2.1 0
v 1.2 2.1 -0.4
v 1.3 2.1 0
v 1.3 2.1 -0.4
v 1.3 2.5 0
v 1.3 2.5 -0.4
v 1.4 2.5 0
v 1.4 2.5 -0.4
v 1.4 3.1 0
v 1.4 3.1 -0.4
v 1.4 3.2 0
v 1.4 3.2 -0.4
v 1.4 3.5 0
v 1.4 3.5 -0.4
v 1.4 3.6 0
v 1.4 3.6 -0.4
v 1.5 3.2 0
v 1.5 3.2 -0.4
v 1.5 3.4 0
v 1.5 3.4 -0.4
v 1.5 3.5 0
v 1.5 3.5 -0.4
v 0 3.2 0
v 0 3.4 0
v 0 3.5 0
v 0.1 2.5 0
v 0.1 3.1 0
v 0.1 3.2 0
v 0.1 3.3 0
v 0.1 3.4 0
v 0.1 3.5 0
v 0.1 3.6 0
v 0.2 2.1 0
v 0.2 2.5 0
v 0.2 2.9 0
v 0.2 3 0
v 0.2 3.1 0
v 0.2 3.2 0
v 0.2 3.3 0
v 0.2 3.4 0
v 0.2 3.5 0
v 0.2 3.6 0
v 0.3 2 0
v 0.3 2.1 0
v 0.3 2.2 0
v 0.3 2.3 0
v 0.3 2.7 0
v 0.3 2.9 0
v 0.3 3.2 0
v 0.3 3.4 0
v 0.3 3.5 0
v 0.4 2 0
v 0.4 2.1 0
v 0.4 2.2 0
v 0.4 2.3 0
v 0.4 2.4 0
v 0.4 2.6 0
v 0.4 2.7 0
v 0.4 2.8 0
v 0.4 2.9 0
v 0.4 3.2 0
v 0.4 3.4 0
v 0.4 3.5 0
v 0.5 2 0
v 0.5 2.1 0
v 0.5 2.4 0
v 0.5 2.6 0
v 0.5 2.8 0
v 0.5 2.9 0
v 0.5 3.1 0
v 0.5 3.2 0
v 0.5 3.3 0
v 0.5 3.4 0
v 0.5 3.5 0
v 0.5 3.6 0
v 0.6 2 0
v 0.6 2.1 0
v 0.6 2.4 0
v 0.6 2.5 0
v 0.6 2.6 0
v 0.6 2.7 0
v 0.6 2.9 0
v 0.6 3.1 0
v 0.6 3.2 0
v 0.6 3.3 0
v 0.6 3.4 0
v 0.6 3.5 0
v 0.6 3.6 0
v 0.7 2 0
v 0.7 2.1 0
v 0.7 2.3 0
v 0.7 2.4 0
v 0.7 2.5 0
v 0.7 2.6 0
v 0.7 2.7 0
v 0.7 2.9 0
v 0.7 3 0
v 0.7 3.1 0
v 0.7 3.2 0
v 0.7 3.4 0
v 0.7 3.5 0
v 0.8 2 0
v 0.8 2.1 0
v 0.8 2.3 0
v 0.8 2.4 0
v 0.8 2.5 0
v 0.8 2.6 0
v 0.8 2.7 0
v 0.8 2.9 0
v 0.8 3 0
v 0.8 3.1 0
v 0.8 3.2 0
v 0.8 3.4 0
v 0.8 3.5 0
v 0.9 2 0
v 0.9 2.1 0
v 0.9 2.4 0
v 0.9 2.5 0
v 0.9 2.6 0
v 0.9 2.7 0
v 0.9 2.8 0
v 0.9 2.9 0
v 0.9 3.1 0
v 0.9 3.2 0
v 0.9 3.3 0
v 0.9 3.4 0
v 0.9 3.5 0
v 0.9 3.6 0
v 1 2 0
v 1 2.1 0
v 1 2.4 0
v 1 2.6 0
v 1 2.8 0
v 1 2.9 0
v 1 3.1 0
v 1 3.2 0
v 1 3.3 0
v 1 3.4 0
v 1 3.5 0
v 1 3.6 0
v 1.1 2 0
v 1.1 2.1 0
v 1.1 2.2 0
v 1.1 2.3 0
v 1.1 2.4 0
v 1.1 2.6 0
v 1.1 2.7 0
v 1.1 2.9 0
v 1.1 3.2 0
v 1.1 3.4 0
v 1.1 3.5 0
v 1.2 2 0
v 1.2 2.1 0
v 1.2 2.2 0
v 1.2 2.3 0
v 1.2 2.7 0
v 1.2 2.9 0
v 1.2 3.2 0
v 1.2 3.4 0
v 1.2 3.5 0
v 1.3 2.1 0
v 1.3 2.5 0
v 1.3 2.9 0
v 1.3 3 0
v 1.3 3.1 0
v 1.3 3.2 0
v 1.3 3.3 0
v 1.3 3.4 0
v 1.3 3.5 0
v 1.3 3.6 0
v 1.4 2.5 0
v 1.4 3.1 0
v 1.4 3.2 0
v 1.4 3.3 0
v 1.4 3.4 0
v 1.4 3.5 0
v 1.4 3.6 0
v 1.5 3.2 0
v 1.5 3.4 0
v 1.5 3.5 0
v 0 3.2 -0.4
v 0 3.4 -0.4
v 0 3.5 -0.4
v 0.1 2.5 -0.4
v 0.1 3.1 -0.4
v 0.1 3.2 -0.4
v 0.1 3.4 -0.4
v 0.1 3.5 -0.4
v 0.1 3.6 -0.4
v 0.2 2.1 -0.4
v 0.2 2.5 -0.4
v 0.2 3.1 -0.4
v 0.2 3.2 -0.4
v 0.2 3.4 -0.4
v 0.2 3.5 -0.4
v 0.2 3.6 -0.4
v 0.3 2 -0.4
v 0.3 2.1 -0.4
v 0.3 3.2 -0.4
v 0.3 3.4 -0.4
v 0.3 3.5 -0.4
v 0.4 2 -0.4
v 0.4 2.1 -0.4
v 0.4 3.2 -0.4
v 0.4 3.4 -0.4
v 0.4 3.5 -0.4
v 0.5 2 -0.4
v 0.5 2.1 -0.4
v 0.5 3.1 -0.4
v 0.5 3.2 -0.4
v 0.5 3.3 -0.4
v 0.5 3.4 -0.4
v 0.5 3.5 -0.4
v 0.5 3.6 -0.4
v 0.6 2 -0.4
v 0.6 2.1 -0.4
v 0.6 3.1 -0.4
v 0.6 3.2 -0.4
v 0.6 3.3 -0.4
v 0.6 3.4 -0.4
v 0.6 3.5 -0.4
v 0.6 3.6 -0.4
v 0.7 2 -0.4
v 0.7 2.1 -0.4
v 0.7 3.2 -0.4
v 0.7 3.4 -0.4
v 0.7 3.5 -0.4
v 0.8 2 -0.4
v 0.8 2.1 -0.4
v 0.8 3.2 -0.4
v 0.8 3.4 -0.4
v 0.8 3.5 -0.4
v 0.9 2 -0.4
v 0.9 2.1 -0.4
v 0.9 3.1 -0.4
v 0.9 3.2 -0.4
v 0.9 3.3 -0.4
v 0.9 3.4 -0.4
v 0.9 3.5 -0.4
v 0.9 3.6 -0.4
v 1 2 -0.4
v 1 2.1 -0.4
v 1 3.1 -0.4
v 1 3.2 -0.4
v 1 3.3 -0.4
v 1 3.4 -0.4
v 1 3.5 -0.4
v 1 3.6 -0.4
v 1.1 2 -0.4
v 1.1 2.1 -0.4
v 1.1 3.2 -0.4
v 1.1 3.4 -0.4
v 1.1 3.5 -0.4
v 1.2 2 -0.4
v 1.2 2.1 -0.4
v 1.2 3.2 -0.4
v 1.2 3.4 -0.4
v 1.2 3.5 -0.4
v 1.3 2.1 -0.4
v 1.3 2.5 -0.4
v 1.3 3.1 -0.4
v 1.3 3.2 -0.4
v 1.3 3.3 -0.4
v 1.3 3.4 -0.4
v 1.3 3.5 -0.4
v 1.3 3.6 -0.4
v 1.4 2.5 -0.4
v 1.4 3.1 -0.4
v 1.4 3.2 -0.4
v 1.4 3.3 -0.4
v 1.4 3.4 -0.4
v 1.4 3.5 -0.4
v 1.4 3.6 -0.4
v 1.5 3.2 -0.4
v 1.5 3.4 -0.4
v 1.5 3.5 -0.4
v 0.3 2 0
v 0.4 2 0
v 0.5 2 0
v 0.6 2 0
v 0.7 2 0
v 0.8 2 0
v 0.9 2 0
v 1 2 0
v 1.1 2 0
v 1.2 2 0
v 0.3 2 -0.4
v 0.4 2 -0.4
v 0.5 2 -0.4
v 0.6 2 -0.4
v 0.7 2 -0.4
v 0.8 2 -0.4
v 0.9 2 -0.4
v 1 2 -0.4
v 1.1 2 -0.4
v 1.2 2 -0.4
v 0.2 2.1 0
v 0.3 2.1 0
v 1.2 2.1 0
v 1.3 2.1 0
v 0.2 2.1 -0.4
v 0.3 2.1 -0.4
v 1.2 2.1 -0.4
v 1.3 2.1 -0.4
v 0.1 2.5 0
v 0.2 2.5 0
v 1.3 2.5 0
v 1.4 2.5 0
v 0.1 2.5 -0.4
v 0.2 2.5 -0.4
v 1.3 2.5 -0.4
v 1.4 2.5 -0.4
v 0 3.2 0
v 0.1 3.2 0
v 0.2 3.2 0
v 0.3 3.2 0
v 0.4 3.2 0
v 0.5 3.2 0
v 0.6 3.2 0
v 0.7 3.2 0
v 0.8 3.2 0
v 0.9 3.2 0
v 1 3.2 0
v 1.1 3.2 0
v 1.2 3.2 0
v 1.3 3.2 0
v 1.4 3.2 0
v 1.5 3.2 0
v 0 3.2 -0.4
v 0.1 3.2 -0.4
v 0.2 3.2 -0.4
v 0.3 3.2 -0.4
v 0.4 3.2 -0.4
v 0.5 3.2 -0.4
v 0.6 3.2 -0.4
v 0.7 3.2 -0.4
v 0.8 3.2 -0.4
v 0.9 3.2 -0.4
v 1 3.2 -0.4
v 1.1 3.2 -0.4
v 1.2 3.2 -0.4
v 1.3 3.2 -0.4
v 1.4 3.2 -0.4
v 1.5 3.2 -0.4
v 0.2 3.1 0
v 0.5 3.1 0
v 0.6 3.1 0
v 0.7 3.1 0
v 0.8 3.1 0
v 0.9 3.1 0
v 1 3.1 0
v 1.3 3.1 0
v 0.2 3.1 -0.1
v 0.5 3.1 -0.1
v 0.6 3.1 -0.1
v 0.7 3.1 -0.1
v 0.8 3.1 -0.1
v 0.9 3.1 -0.1
v 1 3.1 -0.1
v 1.3 3.1 -0.1
v 0.2 3.1 -0.4
v 0.5 3.1 -0.4
v 0.6 3.1 -0.4
v 0.9 3.1 -0.4
v 1 3.1 -0.4
v 1.3 3.1 -0.4
v 0 3.5 0
v 0.1 3.5 0
v 0.2 3.5 0
v 0.3 3.5 0
v 0.4 3.5 0
v 0.5 3.5 0
v 0.6 3.5 0
v 0.7 3.5 0
v 0.8 3.5 0
v 0.9 3.5 0
v 1 3.5 0
v 1.1 3.5 0
v 1.2 3.5 0
v 1.3 3.5 0
v 1.4 3.5 0
v 1.5 3.5 0
v 0 3.5 -0.4
v 0.1 3.5 -0.4
v 0.2 3.5 -0.4
v 0.3 3.5 -0.4
v 0.4 3.5 -0.4
v 0.5 3.5 -0.4
v 0.6 3.5 -0.4
v 0.7 3.5 -0.4
v 0.8 3.5 -0.4
v 0.9 3.5 -0.4
v 1 3.5 -0.4
v 1.1 3.5 -0.4
v 1.2 3.5 -0.4
v 1.3 3.5 -0.4
v 1.4 3.5 -0.4
v 1.5 3.5 -0.4
v 0.1 3.6 0
v 0.2 3.6 0
v 0.5 3.6 0
v 0.6 3.6 0
v 0.9 3.6 0
v 1 3.6 0
v 1.3 3.6 0
v 1.4 3.6 0
v 0.1 3.6 -0.4
v 0.2 3.6 -0.4
v 0.5 3.6 -0.4
v 0.6 3.6 -0.4
v 0.9 3.6 -0.4
v 1 3.6 -0.4
v 1.3 3.6 -0.4
v 1.4 3.6 -0.4

# faces
f 3/19/1 2/19/1 1/19/1
f 4/19/1 2/19/1 3/19/1
f 5/18/1 4/18/1 3/18/1
f 6/18/1 4/18/1 5/18/1
f 9/13/1 8/13/1 7/13/1
f 10/13/1 8/13/1 9/13/1
f 11/20/1 10/20/1 9/20/1
f 12/20/1 10/20/1 11/20/1
f 15/18/1 14/18/1 13/18/1
f 16/18/1 14/18/1 15/18/1
f 19/12/1 18/12/1 17/12/1
f 20/12/1 18/12/1 19/12/1
f 23/13/1 22/13/1 21/13/1
f 24/13/1 22/13/1 23/13/1
f 27/2/1 26/2/1 25/2/1
f 28/2/1 26/2/1 27/2/1
f 29/1/1 28/1/1 27/1/1
f 30/1/1 28/1/1 29/1/1
f 34/3/1 32/3/1 31/3/1
f 34/3/1 33/3/1 32/3/1
f 35/3/1 33/3/1 34/3/1
f 38/1/1 37/1/1 36/1/1
f 39/1/1 37/1/1 38/1/1
f 42/10/1 41/10/1 40/10/1
f 43/10/1 41/10/1 42/10/1
f 44/9/1 43/9/1 42/9/1
f 45/9/1 43/9/1 44/9/1
f 49/11/1 47/11/1 46/11/1
f 49/11/1 48/11/1 47/11/1
f 50/11/1 48/11/1 49/11/1
f 53/9/1 52/9/1 51/9/1
f 54/9/1 52/9/1 53/9/1
f 57/8/1 56/8/1 55/8/1
f 58/8/1 56/8/1 57/8/1
f 59/7/1 58/7/1 57/7/1
f 60/7/1 58/7/1 59/7/1
f 64/6/1 62/6/1 61/6/1
f 64/6/1 63/6/1 62/6/1
f 65/6/1 63/6/1 64/6/1
f 68/7/1 67/7/1 66/7/1
f 69/7/1 67/7/1 68/7/1
f 70/20/2 71/20/2 73/20/2
f 71/20/2 72/20/2 73/20/2
f 73/20/2 72/20/2 74/20/2
f 75/18/2 76/18/2 77/18/2
f 77/18/2 76/18/2 78/18/2
f 79/19/2 80/19/2 81/19/2
f 81/19/2 80/19/2 82/19/2
f 81/18/2 82/18/2 83/18/2
f 83/18/2 82/18/2 84/18/2
f 85/3/2 86/3/2 88/3/2
f 86/3/2 87/3/2 88/3/2
f 88/3/2 87/3/2 89/3/2
f 90/1/2 91/1/2 92/1/2
f 92/1/2 91/1/2 93/1/2
f 94/2/2 95/2/2 96/2/2
f 96/2/2 95/2/2 97/2/2
f 96/1/2 97/1/2 98/1/2
f 98/1/2 97/1/2 99/1/2
f 100/11/2 101/11/2 103/11/2
f 101/11/2 102/11/2 103/11/2
f 103/11/2 102/11/2 104/11/2
f 105/9/2 106/9/2 107/9/2
f 107/9/2 106/9/2 108/9/2
f 109/10/2 110/10/2 111/10/2
f 111/10/2 110/10/2 112/10/2
f 111/9/2 112/9/2 113/9/2
f 113/9/2 112/9/2 114/9/2
f 115/13/2 116/13/2 117/13/2
f 117/13/2 116/13/2 118/13/2
f 119/12/2 120/12/2 121/12/2
f 121/12/2 120/12/2 122/12/2
f 123/13/2 124/13/2 125/13/2
f 125/13/2 124/13/2 126/13/2
f 125/6/2 126/6/2 127/6/2
f 127/6/2 126/6/2 128/6/2
f 129/7/2 130/7/2 131/7/2
f 131/7/2 130/7/2 132/7/2
f 133/8/2 134/8/2 135/8/2
f 135/8/2 134/8/2 136/8/2
f 135/7/2 136/7/2 137/7/2
f 137/7/2 136/7/2 138/7/2
f 144/19/3 140/19/3 139/19/3
f 145/19/3 140/19/3 144/19/3
f 146/18/3 141/18/3 140/18/3
f 146/19/3 140/19/3 145/19/3
f 147/18/3 141/18/3 146/18/3
f 150/13/3 143/13/3 142/13/3
f 151/13/3 143/13/3 150/13/3
f 152/13/3 143/13/3 151/13/3
f 153/20/3 145/20/3 144/20/3
f 153/13/3 143/13/3 152/13/3
f 153/20/3 144/20/3 143/20/3
f 154/20/3 145/20/3 153/20/3
f 155/19/3 146/19/3 145/19/3
f 155/20/3 145/20/3 154/20/3
f 155/19/3 147/19/3 146/19/3
f 156/19/3 147/19/3 155/19/3
f 157/18/3 148/18/3 147/18/3
f 157/19/3 147/19/3 156/19/3
f 158/18/3 148/18/3 157/18/3
f 160/12/3 151/12/3 150/12/3
f 160/12/3 150/12/3 149/12/3
f 161/12/3 151/12/3 160/12/3
f 162/12/3 151/12/3 161/12/3
f 163/12/3 151/12/3 162/12/3
f 164/16/3 152/16/3 151/16/3
f 164/12/3 151/12/3 163/12/3
f 165/19/3 156/19/3 155/19/3
f 165/19/3 155/19/3 154/19/3
f 166/18/3 157/18/3 156/18/3
f 166/19/3 156/19/3 165/19/3
f 167/18/3 157/18/3 166/18/3
f 168/13/3 160/13/3 159/13/3
f 168/13/3 161/13/3 160/13/3
f 169/13/3 161/13/3 168/13/3
f 170/14/3 162/14/3 161/14/3
f 170/13/3 161/13/3 169/13/3
f 171/13/3 163/13/3 162/13/3
f 171/14/3 162/14/3 170/14/3
f 172/13/3 163/13/3 171/13/3
f 173/13/3 163/13/3 172/13/3
f 174/17/3 164/17/3 163/17/3
f 174/13/3 163/13/3 173/13/3
f 175/17/3 164/17/3 174/17/3
f 176/16/3 152/16/3 164/16/3
f 176/17/3 164/17/3 175/17/3
f 180/12/3 169/12/3 168/12/3
f 181/14/3 170/14/3 169/14/3
f 181/12/3 169/12/3 180/12/3
f 182/12/3 173/12/3 172/12/3
f 182/14/3 172/14/3 171/14/3
f 183/17/3 174/17/3 173/17/3
f 183/12/3 173/12/3 182/12/3
f 184/5/3 175/5/3 174/5/3
f 184/4/3 176/4/3 175/4/3
f 185/16/3 152/16/3 176/16/3
f 185/4/3 176/4/3 184/4/3
f 186/14/3 153/14/3 152/14/3
f 187/2/3 178/2/3 177/2/3
f 188/2/3 178/2/3 187/2/3
f 189/1/3 179/1/3 178/1/3
f 189/2/3 178/2/3 188/2/3
f 190/1/3 179/1/3 189/1/3
f 192/13/3 181/13/3 180/13/3
f 193/14/3 170/14/3 181/14/3
f 193/13/3 181/13/3 192/13/3
f 194/14/3 182/14/3 171/14/3
f 194/13/3 183/13/3 182/13/3
f 195/13/3 183/13/3 194/13/3
f 196/17/3 174/17/3 183/17/3
f 196/13/3 183/13/3 195/13/3
f 197/5/3 184/5/3 174/5/3
f 197/17/3 174/17/3 196/17/3
f 197/5/3 185/5/3 184/5/3
f 198/16/3 152/16/3 185/16/3
f 198/5/3 185/5/3 197/5/3
f 199/3/3 188/3/3 187/3/3
f 199/14/3 186/14/3 152/14/3
f 199/3/3 187/3/3 186/3/3
f 200/3/3 188/3/3 199/3/3
f 201/2/3 190/2/3 189/2/3
f 201/3/3 188/3/3 200/3/3
f 201/2/3 189/2/3 188/2/3
f 202/2/3 190/2/3 201/2/3
f 203/1/3 191/1/3 190/1/3
f 203/2/3 190/2/3 202/2/3
f 204/1/3 191/1/3 203/1/3
f 205/12/3 193/12/3 192/12/3
f 206/14/3 170/14/3 193/14/3
f 206/12/3 193/12/3 205/12/3
f 207/15/3 171/15/3 170/15/3
f 207/14/3 194/14/3 171/14/3
f 208/12/3 195/12/3 194/12/3
f 208/14/3 194/14/3 207/14/3
f 209/16/3 196/16/3 195/16/3
f 209/12/3 195/12/3 208/12/3
f 210/12/3 197/12/3 196/12/3
f 210/16/3 196/16/3 209/16/3
f 210/12/3 198/12/3 197/12/3
f 211/12/3 198/12/3 210/12/3
f 212/16/3 152/16/3 198/16/3
f 212/12/3 198/12/3 211/12/3
f 213/14/3 199/14/3 152/14/3
f 213/16/3 152/16/3 212/16/3
f 214/14/3 199/14/3 213/14/3
f 215/2/3 202/2/3 201/2/3
f 215/2/3 201/2/3 200/2/3
f 216/1/3 203/1/3 202/1/3
f 216/2/3 202/2/3 215/2/3
f 217/1/3 203/1/3 216/1/3
f 218/13/3 206/13/3 205/13/3
f 219/14/3 170/14/3 206/14/3
f 219/13/3 206/13/3 218/13/3
f 220/15/3 207/15/3 170/15/3
f 220/16/3 208/16/3 207/16/3
f 221/13/3 209/13/3 208/13/3
f 221/16/3 208/16/3 220/16/3
f 222/14/3 211/14/3 210/14/3
f 222/13/3 209/13/3 221/13/3
f 222/14/3 210/14/3 209/14/3
f 223/14/3 211/14/3 222/14/3
f 224/13/3 214/13/3 213/13/3
f 224/14/3 211/14/3 223/14/3
f 224/13/3 213/13/3 212/13/3
f 224/13/3 212/13/3 211/13/3
f 225/13/3 214/13/3 224/13/3
f 226/13/3 214/13/3 225/13/3
f 227/13/3 214/13/3 226/13/3
f 231/12/3 219/12/3 218/12/3
f 232/14/3 170/14/3 219/14/3
f 232/12/3 219/12/3 231/12/3
f 233/14/3 221/14/3 220/14/3
f 233/12/3 222/12/3 221/12/3
f 234/14/3 223/14/3 222/14/3
f 234/12/3 222/12/3 233/12/3
f 235/12/3 224/12/3 223/12/3
f 235/14/3 223/14/3 234/14/3
f 235/12/3 225/12/3 224/12/3
f 236/12/3 225/12/3 235/12/3
f 237/12/3 225/12/3 236/12/3
f 238/16/3 226/16/3 225/16/3
f 238/12/3 225/12/3 237/12/3
f 239/14/3 227/14/3 226/14/3
f 240/10/3 229/10/3 228/10/3
f 241/10/3 229/10/3 240/10/3
f 242/9/3 230/9/3 229/9/3
f 242/10/3 229/10/3 241/10/3
f 243/9/3 230/9/3 242/9/3
f 245/13/3 232/13/3 231/13/3
f 246/14/3 170/14/3 232/14/3
f 246/13/3 232/13/3 245/13/3
f 247/14/3 233/14/3 220/14/3
f 247/13/3 234/13/3 233/13/3
f 247/13/3 235/13/3 234/13/3
f 248/17/3 236/17/3 235/17/3
f 248/13/3 235/13/3 247/13/3
f 249/5/3 237/5/3 236/5/3
f 249/4/3 238/4/3 237/4/3
f 250/16/3 226/16/3 238/16/3
f 250/4/3 238/4/3 249/4/3
f 251/11/3 241/11/3 240/11/3
f 251/14/3 239/14/3 226/14/3
f 251/11/3 240/11/3 239/11/3
f 252/11/3 241/11/3 251/11/3
f 253/10/3 243/10/3 242/10/3
f 253/11/3 241/11/3 252/11/3
f 253/10/3 242/10/3 241/10/3
f 254/10/3 243/10/3 253/10/3
f 255/9/3 244/9/3 243/9/3
f 255/10/3 243/10/3 254/10/3
f 256/9/3 244/9/3 255/9/3
f 257/12/3 246/12/3 245/12/3
f 258/14/3 170/14/3 246/14/3
f 258/12/3 246/12/3 257/12/3
f 259/15/3 220/15/3 170/15/3
f 259/14/3 170/14/3 258/14/3
f 260/14/3 247/14/3 220/14/3
f 260/15/3 220/15/3 259/15/3
f 261/12/3 248/12/3 247/12/3
f 261/14/3 247/14/3 260/14/3
f 262/17/3 236/17/3 248/17/3
f 262/12/3 248/12/3 261/12/3
f 263/5/3 250/5/3 249/5/3
f 263/17/3 236/17/3 262/17/3
f 263/5/3 249/5/3 236/5/3
f 264/16/3 226/16/3 250/16/3
f 264/5/3 250/5/3 263/5/3
f 265/10/3 254/10/3 253/10/3
f 265/10/3 253/10/3 252/10/3
f 266/9/3 255/9/3 254/9/3
f 266/10/3 254/10/3 265/10/3
f 267/9/3 255/9/3 266/9/3
f 268/13/3 258/13/3 257/13/3
f 268/13/3 259/13/3 258/13/3
f 269/13/3 259/13/3 268/13/3
f 270/14/3 260/14/3 259/14/3
f 270/13/3 259/13/3 269/13/3
f 271/13/3 263/13/3 262/13/3
f 271/14/3 260/14/3 270/14/3
f 271/13/3 262/13/3 261/13/3
f 271/13/3 261/13/3 260/13/3
f 272/17/3 264/17/3 263/17/3
f 272/13/3 263/13/3 271/13/3
f 273/16/3 226/16/3 264/16/3
f 273/17/3 264/17/3 272/17/3
f 277/12/3 270/12/3 269/12/3
f 277/12/3 272/12/3 271/12/3
f 277/12/3 271/12/3 270/12/3
f 277/12/3 273/12/3 272/12/3
f 278/12/3 273/12/3 277/12/3
f 279/16/3 226/16/3 273/16/3
f 279/12/3 273/12/3 278/12/3
f 280/14/3 251/14/3 226/14/3
f 280/16/3 226/16/3 279/16/3
f 281/14/3 251/14/3 280/14/3
f 282/8/3 275/8/3 274/8/3
f 283/8/3 275/8/3 282/8/3
f 284/7/3 276/7/3 275/7/3
f 284/8/3 275/8/3 283/8/3
f 285/7/3 276/7/3 284/7/3
f 287/13/3 281/13/3 280/13/3
f 287/13/3 279/13/3 278/13/3
f 287/13/3 280/13/3 279/13/3
f 288/6/3 283/6/3 282/6/3
f 288/13/3 281/13/3 287/13/3
f 288/6/3 282/6/3 281/6/3
f 289/6/3 283/6/3 288/6/3
f 290/8/3 285/8/3 284/8/3
f 290/6/3 283/6/3 289/6/3
f 290/8/3 284/8/3 283/8/3
f 291/8/3 285/8/3 290/8/3
f 292/7/3 286/7/3 285/7/3
f 292/8/3 285/8/3 291/8/3
f 293/7/3 286/7/3 292/7/3
f 294/8/3 291/8/3 290/8/3
f 294/8/3 290/8/3 289/8/3
f 295/7/3 292/7/3 291/7/3
f 295/8/3 291/8/3 294/8/3
f 296/7/3 292/7/3 295/7/3
f 297/19/4 298/19/4 302/19/4
f 298/18/4 299/18/4 303/18/4
f 302/19/4 298/19/4 303/19/4
f 303/18/4 299/18/4 304/18/4
f 300/13/4 301/13/4 307/13/4
f 301/20/4 302/20/4 308/20/4
f 307/13/4 301/13/4 308/13/4
f 302/19/4 303/19/4 309/19/4
f 308/20/4 302/20/4 309/20/4
f 303/19/4 304/19/4 309/19/4
f 309/19/4 304/19/4 310/19/4
f 304/18/4 305/18/4 311/18/4
f 310/19/4 304/19/4 311/19/4
f 311/18/4 305/18/4 312/18/4
f 306/12/4 307/12/4 314/12/4
f 307/12/4 308/12/4 314/12/4
f 309/19/4 310/19/4 315/19/4
f 310/18/4 311/18/4 316/18/4
f 315/19/4 310/19/4 316/19/4
f 316/18/4 311/18/4 317/18/4
f 313/13/4 314/13/4 318/13/4
f 314/12/4 308/12/4 319/12/4
f 318/13/4 314/13/4 319/13/4
f 318/12/4 319/12/4 323/12/4
f 319/12/4 308/12/4 324/12/4
f 323/12/4 319/12/4 324/12/4
f 324/12/4 308/12/4 325/12/4
f 320/2/4 321/2/4 326/2/4
f 326/2/4 321/2/4 327/2/4
f 321/1/4 322/1/4 328/1/4
f 327/2/4 321/2/4 328/2/4
f 328/1/4 322/1/4 329/1/4
f 323/13/4 324/13/4 331/13/4
f 324/12/4 325/12/4 332/12/4
f 331/13/4 324/13/4 332/13/4
f 326/3/4 327/3/4 333/3/4
f 332/12/4 325/12/4 333/12/4
f 325/3/4 326/3/4 333/3/4
f 333/3/4 327/3/4 334/3/4
f 328/2/4 329/2/4 335/2/4
f 334/3/4 327/3/4 335/3/4
f 327/2/4 328/2/4 335/2/4
f 335/2/4 329/2/4 336/2/4
f 329/1/4 330/1/4 337/1/4
f 336/2/4 329/2/4 337/2/4
f 337/1/4 330/1/4 338/1/4
f 331/12/4 332/12/4 339/12/4
f 332/12/4 333/12/4 339/12/4
f 339/12/4 333/12/4 340/12/4
f 335/2/4 336/2/4 341/2/4
f 334/2/4 335/2/4 341/2/4
f 336/1/4 337/1/4 342/1/4
f 341/2/4 336/2/4 342/2/4
f 342/1/4 337/1/4 343/1/4
f 339/13/4 340/13/4 344/13/4
f 340/12/4 333/12/4 345/12/4
f 344/13/4 340/13/4 345/13/4
f 344/12/4 345/12/4 349/12/4
f 345/12/4 333/12/4 350/12/4
f 349/12/4 345/12/4 350/12/4
f 350/12/4 333/12/4 351/12/4
f 346/10/4 347/10/4 352/10/4
f 352/10/4 347/10/4 353/10/4
f 347/9/4 348/9/4 354/9/4
f 353/10/4 347/10/4 354/10/4
f 354/9/4 348/9/4 355/9/4
f 349/13/4 350/13/4 357/13/4
f 350/12/4 351/12/4 358/12/4
f 357/13/4 350/13/4 358/13/4
f 352/11/4 353/11/4 359/11/4
f 358/12/4 351/12/4 359/12/4
f 351/11/4 352/11/4 359/11/4
f 359/11/4 353/11/4 360/11/4
f 354/10/4 355/10/4 361/10/4
f 360/11/4 353/11/4 361/11/4
f 353/10/4 354/10/4 361/10/4
f 361/10/4 355/10/4 362/10/4
f 355/9/4 356/9/4 363/9/4
f 362/10/4 355/10/4 363/10/4
f 363/9/4 356/9/4 364/9/4
f 357/12/4 358/12/4 365/12/4
f 358/12/4 359/12/4 365/12/4
f 365/12/4 359/12/4 366/12/4
f 361/10/4 362/10/4 367/10/4
f 360/10/4 361/10/4 367/10/4
f 362/9/4 363/9/4 368/9/4
f 367/10/4 362/10/4 368/10/4
f 368/9/4 363/9/4 369/9/4
f 365/13/4 366/13/4 370/13/4
f 366/12/4 359/12/4 371/12/4
f 370/13/4 366/13/4 371/13/4
f 371/12/4 359/12/4 375/12/4
f 375/12/4 359/12/4 376/12/4
f 376/12/4 359/12/4 377/12/4
f 372/8/4 373/8/4 378/8/4
f 378/8/4 373/8/4 379/8/4
f 373/7/4 374/7/4 380/7/4
f 379/8/4 373/8/4 380/8/4
f 380/7/4 374/7/4 381/7/4
f 376/13/4 377/13/4 383/13/4
f 378/6/4 379/6/4 384/6/4
f 383/13/4 377/13/4 384/13/4
f 377/6/4 378/6/4 384/6/4
f 384/6/4 379/6/4 385/6/4
f 380/8/4 381/8/4 386/8/4
f 385/6/4 379/6/4 386/6/4
f 379/8/4 380/8/4 386/8/4
f 386/8/4 381/8/4 387/8/4
f 381/7/4 382/7/4 388/7/4
f 387/8/4 381/8/4 388/8/4
f 388/7/4 382/7/4 389/7/4
f 386/8/4 387/8/4 390/8/4
f 385/8/4 386/8/4 390/8/4
f 387/7/4 388/7/4 391/7/4
f 390/8/4 387/8/4 391/8/4
f 391/7/4 388/7/4 392/7/4
f 403/13/5 394/13/5 393/13/5
f 404/12/5 395/12/5 394/12/5
f 404/13/5 394/13/5 403/13/5
f 405/13/5 396/13/5 395/13/5
f 405/12/5 395/12/5 404/12/5
f 406/12/5 397/12/5 396/12/5
f 406/13/5 396/13/5 405/13/5
f 407/13/5 398/13/5 397/13/5
f 407/12/5 397/12/5 406/12/5
f 408/12/5 399/12/5 398/12/5
f 408/13/5 398/13/5 407/13/5
f 409/13/5 400/13/5 399/13/5
f 409/12/5 399/12/5 408/12/5
f 410/12/5 401/12/5 400/12/5
f 410/13/5 400/13/5 409/13/5
f 411/13/5 402/13/5 401/13/5
f 411/12/5 401/12/5 410/12/5
f 412/13/5 402/13/5 411/13/5
f 417/12/5 414/12/5 413/12/5
f 418/12/5 414/12/5 417/12/5
f 419/12/5 416/12/5 415/12/5
f 420/12/5 416/12/5 419/12/5
f 425/13/5 422/13/5 421/13/5
f 426/13/5 422/13/5 425/13/5
f 427/13/5 424/13/5 423/13/5
f 428/13/5 424/13/5 427/13/5
f 445/19/5 430/19/5 429/19/5
f 446/19/5 430/19/5 445/19/5
f 447/19/5 432/19/5 431/19/5
f 448/19/5 432/19/5 447/19/5
f 449/2/5 434/2/5 433/2/5
f 450/2/5 434/2/5 449/2/5
f 451/2/5 436/2/5 435/2/5
f 452/2/5 436/2/5 451/2/5
f 453/10/5 438/10/5 437/10/5
f 454/10/5 438/10/5 453/10/5
f 455/10/5 440/10/5 439/10/5
f 456/10/5 440/10/5 455/10/5
f 457/8/5 442/8/5 441/8/5
f 458/8/5 442/8/5 457/8/5
f 459/8/5 444/8/5 443/8/5
f 460/8/5 444/8/5 459/8/5
f 461/14/6 462/14/6 469/14/6
f 469/14/6 462/14/6 470/14/6
f 463/14/6 464/14/6 471/14/6
f 464/13/6 465/13/6 472/13/6
f 471/14/6 464/14/6 472/14/6
f 465/14/6 466/14/6 473/14/6
f 472/13/6 465/13/6 473/13/6
f 473/14/6 466/14/6 474/14/6
f 467/14/6 468/14/6 475/14/6
f 475/14/6 468/14/6 476/14/6
f 469/12/6 470/12/6 477/12/6
f 477/12/6 470/12/6 478/12/6
f 473/12/6 474/12/6 479/12/6
f 471/12/6 472/12/6 479/12/6
f 472/12/6 473/12/6 479/12/6
f 479/12/6 474/12/6 480/12/6
f 475/12/6 476/12/6 481/12/6
f 481/12/6 476/12/6 482/12/6
f 483/18/6 484/18/6 499/18/6
f 499/18/6 484/18/6 500/18/6
f 485/18/6 486/18/6 501/18/6
f 501/18/6 486/18/6 502/18/6
f 487/1/6 488/1/6 503/1/6
f 503/1/6 488/1/6 504/1/6
f 489/1/6 490/1/6 505/1/6
f 505/1/6 490/1/6 506/1/6
f 491/9/6 492/9/6 507/9/6
f 507/9/6 492/9/6 508/9/6
f 493/9/6 494/9/6 509/9/6
f 509/9/6 494/9/6 510/9/6
f 495/7/6 496/7/6 511/7/6
f 511/7/6 496/7/6 512/7/6
f 497/7/6 498/7/6 513/7/6
f 513/7/6 498/7/6 514/7/6
f 515/18/6 516/18/6 523/18/6
f 523/18/6 516/18/6 524/18/6
f 517/1/6 518/1/6 525/1/6
f 525/1/6 518/1/6 526/1/6
f 519/9/6 520/9/6 527/9/6
f 527/9/6 520/9/6 528/9/6
f 521/7/6 522/7/6 529/7/6
f 529/7/6 522/7/6 530/7/6
