# MagicaVoxel @ Ephtracy

# group
o 

# material
mtllib final5.mtl
usemtl palette

# normals
vn -1 0 0
vn 1 0 0
vn 0 0 1
vn 0 0 -1
vn 0 -1 0
vn 0 1 0

# texcoords
vt 0.00976563 0.5
vt 0.0136719 0.5
vt 0.0175781 0.5
vt 0.0214844 0.5
vt 0.994141 0.5

# verts
v 0 2.3 -0.6
v 0 2.3 -0.7
v 0 2.3 -0.9
v 0 2.3 -1
v 0 3.3 -0.6
v 0 3.3 -0.7
v 0 3.3 -0.9
v 0 3.3 -1
v 0.1 2.2 -0.6
v 0.1 2.2 -0.7
v 0.1 2.2 -0.9
v 0.1 2.2 -1
v 0.1 2.3 -0.6
v 0.1 2.3 -0.7
v 0.1 2.3 -0.9
v 0.1 2.3 -1
v 0.1 3.3 -0.6
v 0.1 3.3 -0.7
v 0.1 3.3 -0.9
v 0.1 3.3 -1
v 0.1 3.4 -0.6
v 0.1 3.4 -0.7
v 0.1 3.4 -0.9
v 0.1 3.4 -1
v 0.2 2.1 -0.6
v 0.2 2.1 -0.7
v 0.2 2.1 -0.9
v 0.2 2.1 -1
v 0.2 2.2 -0.6
v 0.2 2.2 -0.7
v 0.2 2.2 -0.9
v 0.2 2.2 -1
v 0.2 3.4 -0.6
v 0.2 3.4 -0.7
v 0.2 3.4 -0.9
v 0.2 3.4 -1
v 0.2 3.5 -0.6
v 0.2 3.5 -0.7
v 0.2 3.5 -0.9
v 0.2 3.5 -1
v 0.3 2 -0.6
v 0.3 2 -0.7
v 0.3 2 -0.9
v 0.3 2 -1
v 0.3 2.1 -0.6
v 0.3 2.1 -0.7
v 0.3 2.1 -0.9
v 0.3 2.1 -1
v 0.3 3.5 -0.6
v 0.3 3.5 -0.7
v 0.3 3.5 -0.9
v 0.3 3.5 -1
v 0.3 3.6 -0.6
v 0.3 3.6 -0.7
v 0.3 3.6 -0.9
v 0.3 3.6 -1
v 1.3 2 -0.6
v 1.3 2 -0.7
v 1.3 2 -0.9
v 1.3 2 -1
v 1.3 2.1 -0.6
v 1.3 2.1 -0.7
v 1.3 2.1 -0.9
v 1.3 2.1 -1
v 1.3 3.5 -0.6
v 1.3 3.5 -0.7
v 1.3 3.5 -0.9
v 1.3 3.5 -1
v 1.3 3.6 -0.6
v 1.3 3.6 -0.7
v 1.3 3.6 -0.9
v 1.3 3.6 -1
v 1.4 2.1 -0.6
v 1.4 2.1 -0.7
v 1.4 2.1 -0.9
v 1.4 2.1 -1
v 1.4 2.2 -0.6
v 1.4 2.2 -0.7
v 1.4 2.2 -0.9
v 1.4 2.2 -1
v 1.4 3.4 -0.6
v 1.4 3.4 -0.7
v 1.4 3.4 -0.9
v 1.4 3.4 -1
v 1.4 3.5 -0.6
v 1.4 3.5 -0.7
v 1.4 3.5 -0.9
v 1.4 3.5 -1
v 1.5 2.2 -0.6
v 1.5 2.2 -0.7
v 1.5 2.2 -0.9
v 1.5 2.2 -1
v 1.5 2.3 -0.6
v 1.5 2.3 -0.7
v 1.5 2.3 -0.9
v 1.5 2.3 -1
v 1.5 3.3 -0.6
v 1.5 3.3 -0.7
v 1.5 3.3 -0.9
v 1.5 3.3 -1
v 1.5 3.4 -0.6
v 1.5 3.4 -0.7
v 1.5 3.4 -0.9
v 1.5 3.4 -1
v 1.6 2.3 -0.6
v 1.6 2.3 -0.7
v 1.6 2.3 -0.9
v 1.6 2.3 -1
v 1.6 3.3 -0.6
v 1.6 3.3 -0.7
v 1.6 3.3 -0.9
v 1.6 3.3 -1
v 0 2.3 -0.6
v 0 3.3 -0.6
v 0.1 2.2 -0.6
v 0.1 2.3 -0.6
v 0.1 2.5 -0.6
v 0.1 3.3 -0.6
v 0.1 3.4 -0.6
v 0.2 2.1 -0.6
v 0.2 2.2 -0.6
v 0.2 2.3 -0.6
v 0.2 2.5 -0.6
v 0.2 2.6 -0.6
v 0.2 3.3 -0.6
v 0.2 3.4 -0.6
v 0.2 3.5 -0.6
v 0.3 2 -0.6
v 0.3 2.1 -0.6
v 0.3 2.2 -0.6
v 0.3 3.4 -0.6
v 0.3 3.5 -0.6
v 0.3 3.6 -0.6
v 0.4 2.6 -0.6
v 0.4 3 -0.6
v 0.5 2.5 -0.6
v 0.5 2.6 -0.6
v 0.5 2.7 -0.6
v 0.5 2.8 -0.6
v 0.5 3 -0.6
v 0.5 3.1 -0.6
v 0.6 2.4 -0.6
v 0.6 2.5 -0.6
v 0.6 2.6 -0.6
v 0.6 3 -0.6
v 0.6 3.1 -0.6
v 0.6 3.2 -0.6
v 0.7 2.8 -0.6
v 0.7 2.9 -0.6
v 0.8 2.7 -0.6
v 0.8 2.8 -0.6
v 0.8 2.9 -0.6
v 0.8 3.1 -0.6
v 0.9 2.6 -0.6
v 0.9 2.7 -0.6
v 0.9 2.8 -0.6
v 0.9 3.1 -0.6
v 1 2.4 -0.6
v 1 2.5 -0.6
v 1 2.6 -0.6
v 1 2.7 -0.6
v 1 3 -0.6
v 1 3.1 -0.6
v 1 3.2 -0.6
v 1.1 2.5 -0.6
v 1.1 2.6 -0.6
v 1.1 3 -0.6
v 1.1 3.1 -0.6
v 1.2 2.3 -0.6
v 1.2 2.4 -0.6
v 1.2 2.6 -0.6
v 1.2 3 -0.6
v 1.2 3.1 -0.6
v 1.2 3.2 -0.6
v 1.3 2 -0.6
v 1.3 2.1 -0.6
v 1.3 2.2 -0.6
v 1.3 2.3 -0.6
v 1.3 2.4 -0.6
v 1.3 3.2 -0.6
v 1.3 3.3 -0.6
v 1.3 3.4 -0.6
v 1.3 3.5 -0.6
v 1.3 3.6 -0.6
v 1.4 2.1 -0.6
v 1.4 2.2 -0.6
v 1.4 2.3 -0.6
v 1.4 3.3 -0.6
v 1.4 3.4 -0.6
v 1.4 3.5 -0.6
v 1.5 2.2 -0.6
v 1.5 2.3 -0.6
v 1.5 3.3 -0.6
v 1.5 3.4 -0.6
v 1.6 2.3 -0.6
v 1.6 3.3 -0.6
v 0 2.3 -1
v 0 3.3 -1
v 0.1 2.2 -1
v 0.1 2.3 -1
v 0.1 2.5 -1
v 0.1 3.3 -1
v 0.1 3.4 -1
v 0.2 2.1 -1
v 0.2 2.2 -1
v 0.2 2.3 -1
v 0.2 2.5 -1
v 0.2 2.6 -1
v 0.2 3.3 -1
v 0.2 3.4 -1
v 0.2 3.5 -1
v 0.3 2 -1
v 0.3 2.1 -1
v 0.3 2.2 -1
v 0.3 3.4 -1
v 0.3 3.5 -1
v 0.3 3.6 -1
v 0.4 2.6 -1
v 0.4 3 -1
v 0.5 2.5 -1
v 0.5 2.6 -1
v 0.5 2.7 -1
v 0.5 2.8 -1
v 0.5 3 -1
v 0.5 3.1 -1
v 0.6 2.4 -1
v 0.6 2.5 -1
v 0.6 2.6 -1
v 0.6 3 -1
v 0.6 3.1 -1
v 0.6 3.2 -1
v 0.7 2.8 -1
v 0.7 2.9 -1
v 0.8 2.7 -1
v 0.8 2.8 -1
v 0.8 2.9 -1
v 0.8 3.1 -1
v 0.9 2.6 -1
v 0.9 2.7 -1
v 0.9 2.8 -1
v 0.9 3.1 -1
v 1 2.4 -1
v 1 2.5 -1
v 1 2.6 -1
v 1 2.7 -1
v 1 3 -1
v 1 3.1 -1
v 1 3.2 -1
v 1.1 2.5 -1
v 1.1 2.6 -1
v 1.1 3 -1
v 1.1 3.1 -1
v 1.2 2.3 -1
v 1.2 2.4 -1
v 1.2 2.6 -1
v 1.2 3 -1
v 1.2 3.1 -1
v 1.2 3.2 -1
v 1.3 2 -1
v 1.3 2.1 -1
v 1.3 2.2 -1
v 1.3 2.3 -1
v 1.3 2.4 -1
v 1.3 3.2 -1
v 1.3 3.3 -1
v 1.3 3.4 -1
v 1.3 3.5 -1
v 1.3 3.6 -1
v 1.4 2.1 -1
v 1.4 2.2 -1
v 1.4 2.3 -1
v 1.4 3.3 -1
v 1.4 3.4 -1
v 1.4 3.5 -1
v 1.5 2.2 -1
v 1.5 2.3 -1
v 1.5 3.3 -1
v 1.5 3.4 -1
v 1.6 2.3 -1
v 1.6 3.3 -1
v 0.3 2 -0.6
v 1.3 2 -0.6
v 0.3 2 -0.7
v 1.3 2 -0.7
v 0.3 2 -0.9
v 1.3 2 -0.9
v 0.3 2 -1
v 1.3 2 -1
v 0.2 2.1 -0.6
v 0.3 2.1 -0.6
v 1.3 2.1 -0.6
v 1.4 2.1 -0.6
v 0.2 2.1 -0.7
v 0.3 2.1 -0.7
v 1.3 2.1 -0.7
v 1.4 2.1 -0.7
v 0.2 2.1 -0.9
v 0.3 2.1 -0.9
v 1.3 2.1 -0.9
v 1.4 2.1 -0.9
v 0.2 2.1 -1
v 0.3 2.1 -1
v 1.3 2.1 -1
v 1.4 2.1 -1
v 0.1 2.2 -0.6
v 0.2 2.2 -0.6
v 1.4 2.2 -0.6
v 1.5 2.2 -0.6
v 0.1 2.2 -0.7
v 0.2 2.2 -0.7
v 1.4 2.2 -0.7
v 1.5 2.2 -0.7
v 0.1 2.2 -0.9
v 0.2 2.2 -0.9
v 1.4 2.2 -0.9
v 1.5 2.2 -0.9
v 0.1 2.2 -1
v 0.2 2.2 -1
v 1.4 2.2 -1
v 1.5 2.2 -1
v 0 2.3 -0.6
v 0.1 2.3 -0.6
v 1.5 2.3 -0.6
v 1.6 2.3 -0.6
v 0 2.3 -0.7
v 0.1 2.3 -0.7
v 1.5 2.3 -0.7
v 1.6 2.3 -0.7
v 0 2.3 -0.9
v 0.1 2.3 -0.9
v 1.5 2.3 -0.9
v 1.6 2.3 -0.9
v 0 2.3 -1
v 0.1 2.3 -1
v 1.5 2.3 -1
v 1.6 2.3 -1
v 0 3.3 -0.6
v 0.1 3.3 -0.6
v 1.5 3.3 -0.6
v 1.6 3.3 -0.6
v 0 3.3 -0.7
v 0.1 3.3 -0.7
v 1.5 3.3 -0.7
v 1.6 3.3 -0.7
v 0 3.3 -0.9
v 0.1 3.3 -0.9
v 1.5 3.3 -0.9
v 1.6 3.3 -0.9
v 0 3.3 -1
v 0.1 3.3 -1
v 1.5 3.3 -1
v 1.6 3.3 -1
v 0.1 3.4 -0.6
v 0.2 3.4 -0.6
v 1.4 3.4 -0.6
v 1.5 3.4 -0.6
v 0.1 3.4 -0.7
v 0.2 3.4 -0.7
v 1.4 3.4 -0.7
v 1.5 3.4 -0.7
v 0.1 3.4 -0.9
v 0.2 3.4 -0.9
v 1.4 3.4 -0.9
v 1.5 3.4 -0.9
v 0.1 3.4 -1
v 0.2 3.4 -1
v 1.4 3.4 -1
v 1.5 3.4 -1
v 0.2 3.5 -0.6
v 0.3 3.5 -0.6
v 1.3 3.5 -0.6
v 1.4 3.5 -0.6
v 0.2 3.5 -0.7
v 0.3 3.5 -0.7
v 1.3 3.5 -0.7
v 1.4 3.5 -0.7
v 0.2 3.5 -0.9
v 0.3 3.5 -0.9
v 1.3 3.5 -0.9
v 1.4 3.5 -0.9
v 0.2 3.5 -1
v 0.3 3.5 -1
v 1.3 3.5 -1
v 1.4 3.5 -1
v 0.3 3.6 -0.6
v 1.3 3.6 -0.6
v 0.3 3.6 -0.7
v 1.3 3.6 -0.7
v 0.3 3.6 -0.9
v 1.3 3.6 -0.9
v 0.3 3.6 -1
v 1.3 3.6 -1

# faces
f 5/5/1 2/5/1 1/5/1
f 6/4/1 3/4/1 2/4/1
f 6/5/1 2/5/1 5/5/1
f 7/5/1 4/5/1 3/5/1
f 7/4/1 3/4/1 6/4/1
f 8/5/1 4/5/1 7/5/1
f 13/5/1 10/5/1 9/5/1
f 14/4/1 11/4/1 10/4/1
f 14/5/1 10/5/1 13/5/1
f 15/5/1 12/5/1 11/5/1
f 15/4/1 11/4/1 14/4/1
f 16/5/1 12/5/1 15/5/1
f 21/5/1 18/5/1 17/5/1
f 22/4/1 19/4/1 18/4/1
f 22/5/1 18/5/1 21/5/1
f 23/5/1 20/5/1 19/5/1
f 23/4/1 19/4/1 22/4/1
f 24/5/1 20/5/1 23/5/1
f 29/5/1 26/5/1 25/5/1
f 30/4/1 27/4/1 26/4/1
f 30/5/1 26/5/1 29/5/1
f 31/5/1 28/5/1 27/5/1
f 31/4/1 27/4/1 30/4/1
f 32/5/1 28/5/1 31/5/1
f 37/5/1 34/5/1 33/5/1
f 38/4/1 35/4/1 34/4/1
f 38/5/1 34/5/1 37/5/1
f 39/5/1 36/5/1 35/5/1
f 39/4/1 35/4/1 38/4/1
f 40/5/1 36/5/1 39/5/1
f 45/5/1 42/5/1 41/5/1
f 46/4/1 43/4/1 42/4/1
f 46/5/1 42/5/1 45/5/1
f 47/5/1 44/5/1 43/5/1
f 47/4/1 43/4/1 46/4/1
f 48/5/1 44/5/1 47/5/1
f 53/5/1 50/5/1 49/5/1
f 54/4/1 51/4/1 50/4/1
f 54/5/1 50/5/1 53/5/1
f 55/5/1 52/5/1 51/5/1
f 55/4/1 51/4/1 54/4/1
f 56/5/1 52/5/1 55/5/1
f 57/5/2 58/5/2 61/5/2
f 58/4/2 59/4/2 62/4/2
f 61/5/2 58/5/2 62/5/2
f 59/5/2 60/5/2 63/5/2
f 62/4/2 59/4/2 63/4/2
f 63/5/2 60/5/2 64/5/2
f 65/5/2 66/5/2 69/5/2
f 66/4/2 67/4/2 70/4/2
f 69/5/2 66/5/2 70/5/2
f 67/5/2 68/5/2 71/5/2
f 70/4/2 67/4/2 71/4/2
f 71/5/2 68/5/2 72/5/2
f 73/5/2 74/5/2 77/5/2
f 74/4/2 75/4/2 78/4/2
f 77/5/2 74/5/2 78/5/2
f 75/5/2 76/5/2 79/5/2
f 78/4/2 75/4/2 79/4/2
f 79/5/2 76/5/2 80/5/2
f 81/5/2 82/5/2 85/5/2
f 82/4/2 83/4/2 86/4/2
f 85/5/2 82/5/2 86/5/2
f 83/5/2 84/5/2 87/5/2
f 86/4/2 83/4/2 87/4/2
f 87/5/2 84/5/2 88/5/2
f 89/5/2 90/5/2 93/5/2
f 90/4/2 91/4/2 94/4/2
f 93/5/2 90/5/2 94/5/2
f 91/5/2 92/5/2 95/5/2
f 94/4/2 91/4/2 95/4/2
f 95/5/2 92/5/2 96/5/2
f 97/5/2 98/5/2 101/5/2
f 98/4/2 99/4/2 102/4/2
f 101/5/2 98/5/2 102/5/2
f 99/5/2 100/5/2 103/5/2
f 102/4/2 99/4/2 103/4/2
f 103/5/2 100/5/2 104/5/2
f 105/5/2 106/5/2 109/5/2
f 106/4/2 107/4/2 110/4/2
f 109/5/2 106/5/2 110/5/2
f 107/5/2 108/5/2 111/5/2
f 110/4/2 107/4/2 111/4/2
f 111/5/2 108/5/2 112/5/2
f 116/5/3 114/5/3 113/5/3
f 117/5/3 114/5/3 116/5/3
f 118/5/3 114/5/3 117/5/3
f 121/5/3 116/5/3 115/5/3
f 122/3/3 117/3/3 116/3/3
f 122/5/3 116/5/3 121/5/3
f 123/4/3 118/4/3 117/4/3
f 123/3/3 117/3/3 122/3/3
f 124/4/3 118/4/3 123/4/3
f 125/5/3 119/5/3 118/5/3
f 125/4/3 118/4/3 124/4/3
f 126/5/3 119/5/3 125/5/3
f 129/5/3 121/5/3 120/5/3
f 130/2/3 122/2/3 121/2/3
f 130/5/3 121/5/3 129/5/3
f 131/5/3 127/5/3 126/5/3
f 131/4/3 125/4/3 124/4/3
f 131/4/3 126/4/3 125/4/3
f 132/5/3 127/5/3 131/5/3
f 134/3/3 124/3/3 123/3/3
f 134/3/3 123/3/3 122/3/3
f 134/4/3 132/4/3 131/4/3
f 134/4/3 131/4/3 124/4/3
f 135/4/3 132/4/3 134/4/3
f 136/3/3 134/3/3 122/3/3
f 137/5/3 135/5/3 134/5/3
f 137/3/3 134/3/3 136/3/3
f 138/5/3 135/5/3 137/5/3
f 139/5/3 135/5/3 138/5/3
f 140/4/3 132/4/3 135/4/3
f 140/5/3 135/5/3 139/5/3
f 141/4/3 132/4/3 140/4/3
f 142/3/3 136/3/3 122/3/3
f 143/5/3 137/5/3 136/5/3
f 143/3/3 136/3/3 142/3/3
f 144/2/3 138/2/3 137/2/3
f 144/5/3 137/5/3 143/5/3
f 145/4/3 140/4/3 139/4/3
f 145/5/3 141/5/3 140/5/3
f 146/4/3 132/4/3 141/4/3
f 146/5/3 141/5/3 145/5/3
f 147/4/3 132/4/3 146/4/3
f 148/3/3 139/3/3 138/3/3
f 148/4/3 145/4/3 139/4/3
f 148/4/3 146/4/3 145/4/3
f 149/4/3 146/4/3 148/4/3
f 150/2/3 138/2/3 144/2/3
f 150/3/3 148/3/3 138/3/3
f 150/3/3 149/3/3 148/3/3
f 151/3/3 149/3/3 150/3/3
f 152/4/3 146/4/3 149/4/3
f 152/3/3 149/3/3 151/3/3
f 153/5/3 147/5/3 146/5/3
f 153/4/3 146/4/3 152/4/3
f 154/2/3 151/2/3 150/2/3
f 154/1/3 144/1/3 143/1/3
f 154/2/3 150/2/3 144/2/3
f 155/2/3 151/2/3 154/2/3
f 156/3/3 152/3/3 151/3/3
f 156/2/3 151/2/3 155/2/3
f 156/3/3 153/3/3 152/3/3
f 157/5/3 147/5/3 153/5/3
f 157/3/3 153/3/3 156/3/3
f 158/3/3 142/3/3 122/3/3
f 158/5/3 143/5/3 142/5/3
f 159/1/3 155/1/3 154/1/3
f 159/5/3 143/5/3 158/5/3
f 159/1/3 154/1/3 143/1/3
f 160/1/3 155/1/3 159/1/3
f 161/2/3 157/2/3 156/2/3
f 161/1/3 155/1/3 160/1/3
f 161/2/3 156/2/3 155/2/3
f 162/2/3 157/2/3 161/2/3
f 163/5/3 147/5/3 157/5/3
f 163/2/3 157/2/3 162/2/3
f 164/4/3 132/4/3 147/4/3
f 164/5/3 147/5/3 163/5/3
f 165/5/3 160/5/3 159/5/3
f 165/3/3 159/3/3 158/3/3
f 166/1/3 162/1/3 161/1/3
f 166/5/3 160/5/3 165/5/3
f 166/1/3 161/1/3 160/1/3
f 167/5/3 163/5/3 162/5/3
f 167/1/3 162/1/3 166/1/3
f 168/4/3 164/4/3 163/4/3
f 168/5/3 163/5/3 167/5/3
f 169/2/3 122/2/3 130/2/3
f 169/3/3 166/3/3 165/3/3
f 169/3/3 158/3/3 122/3/3
f 169/3/3 165/3/3 158/3/3
f 170/3/3 166/3/3 169/3/3
f 171/5/3 167/5/3 166/5/3
f 171/3/3 166/3/3 170/3/3
f 172/3/3 168/3/3 167/3/3
f 172/5/3 167/5/3 171/5/3
f 173/4/3 164/4/3 168/4/3
f 173/3/3 168/3/3 172/3/3
f 174/4/3 132/4/3 164/4/3
f 174/4/3 164/4/3 173/4/3
f 175/5/3 129/5/3 128/5/3
f 176/1/3 130/1/3 129/1/3
f 176/5/3 129/5/3 175/5/3
f 177/2/3 170/2/3 169/2/3
f 177/1/3 130/1/3 176/1/3
f 177/2/3 169/2/3 130/2/3
f 178/2/3 170/2/3 177/2/3
f 179/3/3 172/3/3 171/3/3
f 179/2/3 170/2/3 178/2/3
f 179/3/3 171/3/3 170/3/3
f 179/3/3 173/3/3 172/3/3
f 179/3/3 174/3/3 173/3/3
f 180/4/3 132/4/3 174/4/3
f 180/3/3 174/3/3 179/3/3
f 181/4/3 132/4/3 180/4/3
f 182/4/3 132/4/3 181/4/3
f 183/5/3 133/5/3 132/5/3
f 183/4/3 132/4/3 182/4/3
f 184/5/3 133/5/3 183/5/3
f 185/5/3 177/5/3 176/5/3
f 186/1/3 178/1/3 177/1/3
f 186/5/3 177/5/3 185/5/3
f 187/2/3 179/2/3 178/2/3
f 187/1/3 178/1/3 186/1/3
f 187/2/3 180/2/3 179/2/3
f 187/2/3 181/2/3 180/2/3
f 188/4/3 182/4/3 181/4/3
f 188/2/3 181/2/3 187/2/3
f 189/5/3 183/5/3 182/5/3
f 189/4/3 182/4/3 188/4/3
f 190/5/3 183/5/3 189/5/3
f 191/5/3 187/5/3 186/5/3
f 192/1/3 188/1/3 187/1/3
f 192/5/3 187/5/3 191/5/3
f 193/5/3 189/5/3 188/5/3
f 193/1/3 188/1/3 192/1/3
f 194/5/3 189/5/3 193/5/3
f 195/5/3 193/5/3 192/5/3
f 196/5/3 193/5/3 195/5/3
f 197/5/4 198/5/4 200/5/4
f 200/5/4 198/5/4 201/5/4
f 201/5/4 198/5/4 202/5/4
f 199/5/4 200/5/4 205/5/4
f 200/3/4 201/3/4 206/3/4
f 205/5/4 200/5/4 206/5/4
f 201/4/4 202/4/4 207/4/4
f 206/3/4 201/3/4 207/3/4
f 207/4/4 202/4/4 208/4/4
f 202/5/4 203/5/4 209/5/4
f 208/4/4 202/4/4 209/4/4
f 209/5/4 203/5/4 210/5/4
f 204/5/4 205/5/4 213/5/4
f 205/2/4 206/2/4 214/2/4
f 213/5/4 205/5/4 214/5/4
f 210/5/4 211/5/4 215/5/4
f 208/4/4 209/4/4 215/4/4
f 209/4/4 210/4/4 215/4/4
f 215/5/4 211/5/4 216/5/4
f 207/3/4 208/3/4 218/3/4
f 206/3/4 207/3/4 218/3/4
f 215/4/4 216/4/4 218/4/4
f 208/4/4 215/4/4 218/4/4
f 218/4/4 216/4/4 219/4/4
f 206/3/4 218/3/4 220/3/4
f 218/5/4 219/5/4 221/5/4
f 220/3/4 218/3/4 221/3/4
f 221/5/4 219/5/4 222/5/4
f 222/5/4 219/5/4 223/5/4
f 219/4/4 216/4/4 224/4/4
f 223/5/4 219/5/4 224/5/4
f 224/4/4 216/4/4 225/4/4
f 206/3/4 220/3/4 226/3/4
f 220/5/4 221/5/4 227/5/4
f 226/3/4 220/3/4 227/3/4
f 221/2/4 222/2/4 228/2/4
f 227/5/4 221/5/4 228/5/4
f 223/4/4 224/4/4 229/4/4
f 224/5/4 225/5/4 229/5/4
f 225/4/4 216/4/4 230/4/4
f 229/5/4 225/5/4 230/5/4
f 230/4/4 216/4/4 231/4/4
f 222/3/4 223/3/4 232/3/4
f 223/4/4 229/4/4 232/4/4
f 229/4/4 230/4/4 232/4/4
f 232/4/4 230/4/4 233/4/4
f 228/2/4 222/2/4 234/2/4
f 222/3/4 232/3/4 234/3/4
f 232/3/4 233/3/4 234/3/4
f 234/3/4 233/3/4 235/3/4
f 233/4/4 230/4/4 236/4/4
f 235/3/4 233/3/4 236/3/4
f 230/5/4 231/5/4 237/5/4
f 236/4/4 230/4/4 237/4/4
f 234/2/4 235/2/4 238/2/4
f 227/1/4 228/1/4 238/1/4
f 228/2/4 234/2/4 238/2/4
f 238/2/4 235/2/4 239/2/4
f 235/3/4 236/3/4 240/3/4
f 239/2/4 235/2/4 240/2/4
f 236/3/4 237/3/4 240/3/4
f 237/5/4 231/5/4 241/5/4
f 240/3/4 237/3/4 241/3/4
f 206/3/4 226/3/4 242/3/4
f 226/5/4 227/5/4 242/5/4
f 238/1/4 239/1/4 243/1/4
f 242/5/4 227/5/4 243/5/4
f 227/1/4 238/1/4 243/1/4
f 243/1/4 239/1/4 244/1/4
f 240/2/4 241/2/4 245/2/4
f 244/1/4 239/1/4 245/1/4
f 239/2/4 240/2/4 245/2/4
f 245/2/4 241/2/4 246/2/4
f 241/5/4 231/5/4 247/5/4
f 246/2/4 241/2/4 247/2/4
f 231/4/4 216/4/4 248/4/4
f 247/5/4 231/5/4 248/5/4
f 243/5/4 244/5/4 249/5/4
f 242/3/4 243/3/4 249/3/4
f 245/1/4 246/1/4 250/1/4
f 249/5/4 244/5/4 250/5/4
f 244/1/4 245/1/4 250/1/4
f 246/5/4 247/5/4 251/5/4
f 250/1/4 246/1/4 251/1/4
f 247/4/4 248/4/4 252/4/4
f 251/5/4 247/5/4 252/5/4
f 214/2/4 206/2/4 253/2/4
f 249/3/4 250/3/4 253/3/4
f 206/3/4 242/3/4 253/3/4
f 242/3/4 249/3/4 253/3/4
f 253/3/4 250/3/4 254/3/4
f 250/5/4 251/5/4 255/5/4
f 254/3/4 250/3/4 255/3/4
f 251/3/4 252/3/4 256/3/4
f 255/5/4 251/5/4 256/5/4
f 252/4/4 248/4/4 257/4/4
f 256/3/4 252/3/4 257/3/4
f 248/4/4 216/4/4 258/4/4
f 257/4/4 248/4/4 258/4/4
f 212/5/4 213/5/4 259/5/4
f 213/1/4 214/1/4 260/1/4
f 259/5/4 213/5/4 260/5/4
f 253/2/4 254/2/4 261/2/4
f 260/1/4 214/1/4 261/1/4
f 214/2/4 253/2/4 261/2/4
f 261/2/4 254/2/4 262/2/4
f 255/3/4 256/3/4 263/3/4
f 262/2/4 254/2/4 263/2/4
f 254/3/4 255/3/4 263/3/4
f 256/3/4 257/3/4 263/3/4
f 257/3/4 258/3/4 263/3/4
f 258/4/4 216/4/4 264/4/4
f 263/3/4 258/3/4 264/3/4
f 264/4/4 216/4/4 265/4/4
f 265/4/4 216/4/4 266/4/4
f 216/5/4 217/5/4 267/5/4
f 266/4/4 216/4/4 267/4/4
f 267/5/4 217/5/4 268/5/4
f 260/5/4 261/5/4 269/5/4
f 261/1/4 262/1/4 270/1/4
f 269/5/4 261/5/4 270/5/4
f 262/2/4 263/2/4 271/2/4
f 270/1/4 262/1/4 271/1/4
f 263/2/4 264/2/4 271/2/4
f 264/2/4 265/2/4 271/2/4
f 265/4/4 266/4/4 272/4/4
f 271/2/4 265/2/4 272/2/4
f 266/5/4 267/5/4 273/5/4
f 272/4/4 266/4/4 273/4/4
f 273/5/4 267/5/4 274/5/4
f 270/5/4 271/5/4 275/5/4
f 271/1/4 272/1/4 276/1/4
f 275/5/4 271/5/4 276/5/4
f 272/5/4 273/5/4 277/5/4
f 276/1/4 272/1/4 277/1/4
f 277/5/4 273/5/4 278/5/4
f 276/5/4 277/5/4 279/5/4
f 279/5/4 277/5/4 280/5/4
f 283/5/5 282/5/5 281/5/5
f 284/5/5 282/5/5 283/5/5
f 285/4/5 284/4/5 283/4/5
f 286/4/5 284/4/5 285/4/5
f 287/5/5 286/5/5 285/5/5
f 288/5/5 286/5/5 287/5/5
f 293/5/5 290/5/5 289/5/5
f 294/5/5 290/5/5 293/5/5
f 295/5/5 292/5/5 291/5/5
f 296/5/5 292/5/5 295/5/5
f 297/4/5 294/4/5 293/4/5
f 298/4/5 294/4/5 297/4/5
f 299/4/5 296/4/5 295/4/5
f 300/4/5 296/4/5 299/4/5
f 301/5/5 298/5/5 297/5/5
f 302/5/5 298/5/5 301/5/5
f 303/5/5 300/5/5 299/5/5
f 304/5/5 300/5/5 303/5/5
f 309/5/5 306/5/5 305/5/5
f 310/5/5 306/5/5 309/5/5
f 311/5/5 308/5/5 307/5/5
f 312/5/5 308/5/5 311/5/5
f 313/4/5 310/4/5 309/4/5
f 314/4/5 310/4/5 313/4/5
f 315/4/5 312/4/5 311/4/5
f 316/4/5 312/4/5 315/4/5
f 317/5/5 314/5/5 313/5/5
f 318/5/5 314/5/5 317/5/5
f 319/5/5 316/5/5 315/5/5
f 320/5/5 316/5/5 319/5/5
f 325/5/5 322/5/5 321/5/5
f 326/5/5 322/5/5 325/5/5
f 327/5/5 324/5/5 323/5/5
f 328/5/5 324/5/5 327/5/5
f 329/4/5 326/4/5 325/4/5
f 330/4/5 326/4/5 329/4/5
f 331/4/5 328/4/5 327/4/5
f 332/4/5 328/4/5 331/4/5
f 333/5/5 330/5/5 329/5/5
f 334/5/5 330/5/5 333/5/5
f 335/5/5 332/5/5 331/5/5
f 336/5/5 332/5/5 335/5/5
f 337/5/6 338/5/6 341/5/6
f 341/5/6 338/5/6 342/5/6
f 339/5/6 340/5/6 343/5/6
f 343/5/6 340/5/6 344/5/6
f 341/4/6 342/4/6 345/4/6
f 345/4/6 342/4/6 346/4/6
f 343/4/6 344/4/6 347/4/6
f 347/4/6 344/4/6 348/4/6
f 345/5/6 346/5/6 349/5/6
f 349/5/6 346/5/6 350/5/6
f 347/5/6 348/5/6 351/5/6
f 351/5/6 348/5/6 352/5/6
f 353/5/6 354/5/6 357/5/6
f 357/5/6 354/5/6 358/5/6
f 355/5/6 356/5/6 359/5/6
f 359/5/6 356/5/6 360/5/6
f 357/4/6 358/4/6 361/4/6
f 361/4/6 358/4/6 362/4/6
f 359/4/6 360/4/6 363/4/6
f 363/4/6 360/4/6 364/4/6
f 361/5/6 362/5/6 365/5/6
f 365/5/6 362/5/6 366/5/6
f 363/5/6 364/5/6 367/5/6
f 367/5/6 364/5/6 368/5/6
f 369/5/6 370/5/6 373/5/6
f 373/5/6 370/5/6 374/5/6
f 371/5/6 372/5/6 375/5/6
f 375/5/6 372/5/6 376/5/6
f 373/4/6 374/4/6 377/4/6
f 377/4/6 374/4/6 378/4/6
f 375/4/6 376/4/6 379/4/6
f 379/4/6 376/4/6 380/4/6
f 377/5/6 378/5/6 381/5/6
f 381/5/6 378/5/6 382/5/6
f 379/5/6 380/5/6 383/5/6
f 383/5/6 380/5/6 384/5/6
f 385/5/6 386/5/6 387/5/6
f 387/5/6 386/5/6 388/5/6
f 387/4/6 388/4/6 389/4/6
f 389/4/6 388/4/6 390/4/6
f 389/5/6 390/5/6 391/5/6
f 391/5/6 390/5/6 392/5/6
