# MagicaVoxel @ Ephtracy

# group
o 

# material
mtllib final2.mtl
usemtl palette

# normals
vn -1 0 0
vn 1 0 0
vn 0 0 1
vn 0 0 -1
vn 0 -1 0
vn 0 1 0

# texcoords
vt 0.751953 0.5
vt 0.755859 0.5
vt 0.783203 0.5
vt 0.958984 0.5
vt 0.994141 0.5

# verts
v 0.2 2.4 -0.6
v 0.2 2.4 -0.7
v 0.2 2.4 -0.9
v 0.2 2.4 -1
v 0.2 2.7 -0.6
v 0.2 2.7 -0.7
v 0.2 2.7 -0.9
v 0.2 2.7 -1
v 0.3 2.2 -0.6
v 0.3 2.2 -0.7
v 0.3 2.2 -0.9
v 0.3 2.2 -1
v 0.3 2.4 -0.6
v 0.3 2.4 -0.7
v 0.3 2.4 -0.9
v 0.3 2.4 -1
v 0.3 2.7 -0.6
v 0.3 2.7 -0.7
v 0.3 2.7 -0.9
v 0.3 2.7 -1
v 0.3 2.9 -0.6
v 0.3 2.9 -0.7
v 0.3 2.9 -0.9
v 0.3 2.9 -1
v 0.4 2.1 -0.6
v 0.4 2.1 -0.7
v 0.4 2.1 -0.9
v 0.4 2.1 -1
v 0.4 2.2 -0.6
v 0.4 2.2 -0.7
v 0.4 2.2 -0.9
v 0.4 2.2 -1
v 0.4 2.9 -0.6
v 0.4 2.9 -0.7
v 0.4 2.9 -0.9
v 0.4 2.9 -1
v 0.4 3.1 -0.6
v 0.4 3.1 -0.7
v 0.4 3.1 -0.9
v 0.4 3.1 -1
v 0.5 2 -0.6
v 0.5 2 -0.7
v 0.5 2 -0.9
v 0.5 2 -1
v 0.5 2.1 -0.6
v 0.5 2.1 -0.7
v 0.5 2.1 -0.9
v 0.5 2.1 -1
v 0.5 3.1 -0.6
v 0.5 3.1 -0.7
v 0.5 3.1 -0.9
v 0.5 3.1 -1
v 0.5 3.3 -0.6
v 0.5 3.3 -0.7
v 0.5 3.3 -0.9
v 0.5 3.3 -1
v 0.6 3.3 -0.6
v 0.6 3.3 -0.7
v 0.6 3.3 -0.9
v 0.6 3.3 -1
v 0.6 3.5 -0.6
v 0.6 3.5 -0.7
v 0.6 3.5 -0.9
v 0.6 3.5 -1
v 0.7 3.5 -0.6
v 0.7 3.5 -0.7
v 0.7 3.5 -0.9
v 0.7 3.5 -1
v 0.7 3.6 -0.6
v 0.7 3.6 -0.7
v 0.7 3.6 -0.9
v 0.7 3.6 -1
v 0.9 3.5 -0.6
v 0.9 3.5 -0.7
v 0.9 3.5 -0.9
v 0.9 3.5 -1
v 0.9 3.6 -0.6
v 0.9 3.6 -0.7
v 0.9 3.6 -0.9
v 0.9 3.6 -1
v 1 3.3 -0.6
v 1 3.3 -0.7
v 1 3.3 -0.9
v 1 3.3 -1
v 1 3.5 -0.6
v 1 3.5 -0.7
v 1 3.5 -0.9
v 1 3.5 -1
v 1.1 2 -0.6
v 1.1 2 -0.7
v 1.1 2 -0.9
v 1.1 2 -1
v 1.1 2.1 -0.6
v 1.1 2.1 -0.7
v 1.1 2.1 -0.9
v 1.1 2.1 -1
v 1.1 3.1 -0.6
v 1.1 3.1 -0.7
v 1.1 3.1 -0.9
v 1.1 3.1 -1
v 1.1 3.3 -0.6
v 1.1 3.3 -0.7
v 1.1 3.3 -0.9
v 1.1 3.3 -1
v 1.2 2.1 -0.6
v 1.2 2.1 -0.7
v 1.2 2.1 -0.9
v 1.2 2.1 -1
v 1.2 2.2 -0.6
v 1.2 2.2 -0.7
v 1.2 2.2 -0.9
v 1.2 2.2 -1
v 1.2 2.9 -0.6
v 1.2 2.9 -0.7
v 1.2 2.9 -0.9
v 1.2 2.9 -1
v 1.2 3.1 -0.6
v 1.2 3.1 -0.7
v 1.2 3.1 -0.9
v 1.2 3.1 -1
v 1.3 2.2 -0.6
v 1.3 2.2 -0.7
v 1.3 2.2 -0.9
v 1.3 2.2 -1
v 1.3 2.4 -0.6
v 1.3 2.4 -0.7
v 1.3 2.4 -0.9
v 1.3 2.4 -1
v 1.3 2.7 -0.6
v 1.3 2.7 -0.7
v 1.3 2.7 -0.9
v 1.3 2.7 -1
v 1.3 2.9 -0.6
v 1.3 2.9 -0.7
v 1.3 2.9 -0.9
v 1.3 2.9 -1
v 1.4 2.4 -0.6
v 1.4 2.4 -0.7
v 1.4 2.4 -0.9
v 1.4 2.4 -1
v 1.4 2.7 -0.6
v 1.4 2.7 -0.7
v 1.4 2.7 -0.9
v 1.4 2.7 -1
v 0.2 2.4 -0.6
v 0.2 2.7 -0.6
v 0.3 2.2 -0.6
v 0.3 2.4 -0.6
v 0.3 2.7 -0.6
v 0.3 2.9 -0.6
v 0.4 2.1 -0.6
v 0.4 2.2 -0.6
v 0.4 2.4 -0.6
v 0.4 2.7 -0.6
v 0.4 2.9 -0.6
v 0.4 3.1 -0.6
v 0.5 2 -0.6
v 0.5 2.1 -0.6
v 0.5 2.2 -0.6
v 0.5 2.3 -0.6
v 0.5 2.4 -0.6
v 0.5 2.7 -0.6
v 0.5 2.9 -0.6
v 0.5 3.1 -0.6
v 0.5 3.3 -0.6
v 0.6 2.3 -0.6
v 0.6 2.4 -0.6
v 0.6 2.7 -0.6
v 0.6 2.9 -0.6
v 0.6 3.1 -0.6
v 0.6 3.3 -0.6
v 0.6 3.5 -0.6
v 0.7 2.4 -0.6
v 0.7 2.7 -0.6
v 0.7 2.9 -0.6
v 0.7 3.1 -0.6
v 0.7 3.3 -0.6
v 0.7 3.5 -0.6
v 0.7 3.6 -0.6
v 0.8 2.3 -0.6
v 0.8 2.4 -0.6
v 0.8 2.7 -0.6
v 0.8 2.9 -0.6
v 0.8 3.1 -0.6
v 0.8 3.3 -0.6
v 0.8 3.4 -0.6
v 0.9 2.2 -0.6
v 0.9 2.3 -0.6
v 0.9 2.9 -0.6
v 0.9 3.1 -0.6
v 0.9 3.3 -0.6
v 0.9 3.4 -0.6
v 0.9 3.5 -0.6
v 0.9 3.6 -0.6
v 1 2.1 -0.6
v 1 2.2 -0.6
v 1 3.1 -0.6
v 1 3.3 -0.6
v 1 3.5 -0.6
v 1.1 2 -0.6
v 1.1 2.1 -0.6
v 1.1 2.2 -0.6
v 1.1 2.9 -0.6
v 1.1 3.1 -0.6
v 1.1 3.3 -0.6
v 1.2 2.1 -0.6
v 1.2 2.2 -0.6
v 1.2 2.4 -0.6
v 1.2 2.7 -0.6
v 1.2 2.9 -0.6
v 1.2 3.1 -0.6
v 1.3 2.2 -0.6
v 1.3 2.4 -0.6
v 1.3 2.7 -0.6
v 1.3 2.9 -0.6
v 1.4 2.4 -0.6
v 1.4 2.7 -0.6
v 0.2 2.4 -1
v 0.2 2.7 -1
v 0.3 2.2 -1
v 0.3 2.4 -1
v 0.3 2.7 -1
v 0.3 2.9 -1
v 0.4 2.1 -1
v 0.4 2.2 -1
v 0.4 2.4 -1
v 0.4 2.7 -1
v 0.4 2.9 -1
v 0.4 3.1 -1
v 0.5 2 -1
v 0.5 2.1 -1
v 0.5 2.2 -1
v 0.5 2.3 -1
v 0.5 2.4 -1
v 0.5 2.7 -1
v 0.5 2.9 -1
v 0.5 3.1 -1
v 0.5 3.3 -1
v 0.6 2.3 -1
v 0.6 2.4 -1
v 0.6 2.7 -1
v 0.6 2.9 -1
v 0.6 3.1 -1
v 0.6 3.3 -1
v 0.6 3.5 -1
v 0.7 2.4 -1
v 0.7 2.7 -1
v 0.7 2.9 -1
v 0.7 3.1 -1
v 0.7 3.3 -1
v 0.7 3.5 -1
v 0.7 3.6 -1
v 0.8 2.3 -1
v 0.8 2.4 -1
v 0.8 2.7 -1
v 0.8 2.9 -1
v 0.8 3.1 -1
v 0.8 3.3 -1
v 0.8 3.4 -1
v 0.9 2.2 -1
v 0.9 2.3 -1
v 0.9 2.9 -1
v 0.9 3.1 -1
v 0.9 3.3 -1
v 0.9 3.4 -1
v 0.9 3.5 -1
v 0.9 3.6 -1
v 1 2.1 -1
v 1 2.2 -1
v 1 3.1 -1
v 1 3.3 -1
v 1 3.5 -1
v 1.1 2 -1
v 1.1 2.1 -1
v 1.1 2.2 -1
v 1.1 2.9 -1
v 1.1 3.1 -1
v 1.1 3.3 -1
v 1.2 2.1 -1
v 1.2 2.2 -1
v 1.2 2.4 -1
v 1.2 2.7 -1
v 1.2 2.9 -1
v 1.2 3.1 -1
v 1.3 2.2 -1
v 1.3 2.4 -1
v 1.3 2.7 -1
v 1.3 2.9 -1
v 1.4 2.4 -1
v 1.4 2.7 -1
v 0.5 2 -0.6
v 1.1 2 -0.6
v 0.5 2 -0.7
v 1.1 2 -0.7
v 0.5 2 -0.9
v 1.1 2 -0.9
v 0.5 2 -1
v 1.1 2 -1
v 0.4 2.1 -0.6
v 0.5 2.1 -0.6
v 1.1 2.1 -0.6
v 1.2 2.1 -0.6
v 0.4 2.1 -0.7
v 0.5 2.1 -0.7
v 1.1 2.1 -0.7
v 1.2 2.1 -0.7
v 0.4 2.1 -0.9
v 0.5 2.1 -0.9
v 1.1 2.1 -0.9
v 1.2 2.1 -0.9
v 0.4 2.1 -1
v 0.5 2.1 -1
v 1.1 2.1 -1
v 1.2 2.1 -1
v 0.3 2.2 -0.6
v 0.4 2.2 -0.6
v 1.2 2.2 -0.6
v 1.3 2.2 -0.6
v 0.3 2.2 -0.7
v 0.4 2.2 -0.7
v 1.2 2.2 -0.7
v 1.3 2.2 -0.7
v 0.3 2.2 -0.9
v 0.4 2.2 -0.9
v 1.2 2.2 -0.9
v 1.3 2.2 -0.9
v 0.3 2.2 -1
v 0.4 2.2 -1
v 1.2 2.2 -1
v 1.3 2.2 -1
v 0.2 2.4 -0.6
v 0.3 2.4 -0.6
v 1.3 2.4 -0.6
v 1.4 2.4 -0.6
v 0.2 2.4 -0.7
v 0.3 2.4 -0.7
v 1.3 2.4 -0.7
v 1.4 2.4 -0.7
v 0.2 2.4 -0.9
v 0.3 2.4 -0.9
v 1.3 2.4 -0.9
v 1.4 2.4 -0.9
v 0.2 2.4 -1
v 0.3 2.4 -1
v 1.3 2.4 -1
v 1.4 2.4 -1
v 0.2 2.7 -0.6
v 0.3 2.7 -0.6
v 1.3 2.7 -0.6
v 1.4 2.7 -0.6
v 0.2 2.7 -0.7
v 0.3 2.7 -0.7
v 1.3 2.7 -0.7
v 1.4 2.7 -0.7
v 0.2 2.7 -0.9
v 0.3 2.7 -0.9
v 1.3 2.7 -0.9
v 1.4 2.7 -0.9
v 0.2 2.7 -1
v 0.3 2.7 -1
v 1.3 2.7 -1
v 1.4 2.7 -1
v 0.3 2.9 -0.6
v 0.4 2.9 -0.6
v 1.2 2.9 -0.6
v 1.3 2.9 -0.6
v 0.3 2.9 -0.7
v 0.4 2.9 -0.7
v 1.2 2.9 -0.7
v 1.3 2.9 -0.7
v 0.3 2.9 -0.9
v 0.4 2.9 -0.9
v 1.2 2.9 -0.9
v 1.3 2.9 -0.9
v 0.3 2.9 -1
v 0.4 2.9 -1
v 1.2 2.9 -1
v 1.3 2.9 -1
v 0.4 3.1 -0.6
v 0.5 3.1 -0.6
v 1.1 3.1 -0.6
v 1.2 3.1 -0.6
v 0.4 3.1 -0.7
v 0.5 3.1 -0.7
v 1.1 3.1 -0.7
v 1.2 3.1 -0.7
v 0.4 3.1 -0.9
v 0.5 3.1 -0.9
v 1.1 3.1 -0.9
v 1.2 3.1 -0.9
v 0.4 3.1 -1
v 0.5 3.1 -1
v 1.1 3.1 -1
v 1.2 3.1 -1
v 0.5 3.3 -0.6
v 0.6 3.3 -0.6
v 1 3.3 -0.6
v 1.1 3.3 -0.6
v 0.5 3.3 -0.7
v 0.6 3.3 -0.7
v 1 3.3 -0.7
v 1.1 3.3 -0.7
v 0.5 3.3 -0.9
v 0.6 3.3 -0.9
v 1 3.3 -0.9
v 1.1 3.3 -0.9
v 0.5 3.3 -1
v 0.6 3.3 -1
v 1 3.3 -1
v 1.1 3.3 -1
v 0.6 3.5 -0.6
v 0.7 3.5 -0.6
v 0.9 3.5 -0.6
v 1 3.5 -0.6
v 0.6 3.5 -0.7
v 0.7 3.5 -0.7
v 0.9 3.5 -0.7
v 1 3.5 -0.7
v 0.6 3.5 -0.9
v 0.7 3.5 -0.9
v 0.9 3.5 -0.9
v 1 3.5 -0.9
v 0.6 3.5 -1
v 0.7 3.5 -1
v 0.9 3.5 -1
v 1 3.5 -1
v 0.7 3.6 -0.6
v 0.9 3.6 -0.6
v 0.7 3.6 -0.7
v 0.9 3.6 -0.7
v 0.7 3.6 -0.9
v 0.9 3.6 -0.9
v 0.7 3.6 -1
v 0.9 3.6 -1

# faces
f 5/5/1 2/5/1 1/5/1
f 6/1/1 3/1/1 2/1/1
f 6/5/1 2/5/1 5/5/1
f 7/5/1 4/5/1 3/5/1
f 7/1/1 3/1/1 6/1/1
f 8/5/1 4/5/1 7/5/1
f 13/5/1 10/5/1 9/5/1
f 14/1/1 11/1/1 10/1/1
f 14/5/1 10/5/1 13/5/1
f 15/5/1 12/5/1 11/5/1
f 15/1/1 11/1/1 14/1/1
f 16/5/1 12/5/1 15/5/1
f 21/5/1 18/5/1 17/5/1
f 22/1/1 19/1/1 18/1/1
f 22/5/1 18/5/1 21/5/1
f 23/5/1 20/5/1 19/5/1
f 23/1/1 19/1/1 22/1/1
f 24/5/1 20/5/1 23/5/1
f 29/5/1 26/5/1 25/5/1
f 30/1/1 27/1/1 26/1/1
f 30/5/1 26/5/1 29/5/1
f 31/5/1 28/5/1 27/5/1
f 31/1/1 27/1/1 30/1/1
f 32/5/1 28/5/1 31/5/1
f 37/5/1 34/5/1 33/5/1
f 38/1/1 35/1/1 34/1/1
f 38/5/1 34/5/1 37/5/1
f 39/5/1 36/5/1 35/5/1
f 39/1/1 35/1/1 38/1/1
f 40/5/1 36/5/1 39/5/1
f 45/5/1 42/5/1 41/5/1
f 46/1/1 43/1/1 42/1/1
f 46/5/1 42/5/1 45/5/1
f 47/5/1 44/5/1 43/5/1
f 47/1/1 43/1/1 46/1/1
f 48/5/1 44/5/1 47/5/1
f 53/5/1 50/5/1 49/5/1
f 54/1/1 51/1/1 50/1/1
f 54/5/1 50/5/1 53/5/1
f 55/5/1 52/5/1 51/5/1
f 55/1/1 51/1/1 54/1/1
f 56/5/1 52/5/1 55/5/1
f 61/5/1 58/5/1 57/5/1
f 62/1/1 59/1/1 58/1/1
f 62/5/1 58/5/1 61/5/1
f 63/5/1 60/5/1 59/5/1
f 63/1/1 59/1/1 62/1/1
f 64/5/1 60/5/1 63/5/1
f 69/5/1 66/5/1 65/5/1
f 70/1/1 67/1/1 66/1/1
f 70/5/1 66/5/1 69/5/1
f 71/5/1 68/5/1 67/5/1
f 71/1/1 67/1/1 70/1/1
f 72/5/1 68/5/1 71/5/1
f 73/5/2 74/5/2 77/5/2
f 74/1/2 75/1/2 78/1/2
f 77/5/2 74/5/2 78/5/2
f 75/5/2 76/5/2 79/5/2
f 78/1/2 75/1/2 79/1/2
f 79/5/2 76/5/2 80/5/2
f 81/5/2 82/5/2 85/5/2
f 82/1/2 83/1/2 86/1/2
f 85/5/2 82/5/2 86/5/2
f 83/5/2 84/5/2 87/5/2
f 86/1/2 83/1/2 87/1/2
f 87/5/2 84/5/2 88/5/2
f 89/5/2 90/5/2 93/5/2
f 90/1/2 91/1/2 94/1/2
f 93/5/2 90/5/2 94/5/2
f 91/5/2 92/5/2 95/5/2
f 94/1/2 91/1/2 95/1/2
f 95/5/2 92/5/2 96/5/2
f 97/5/2 98/5/2 101/5/2
f 98/1/2 99/1/2 102/1/2
f 101/5/2 98/5/2 102/5/2
f 99/5/2 100/5/2 103/5/2
f 102/1/2 99/1/2 103/1/2
f 103/5/2 100/5/2 104/5/2
f 105/5/2 106/5/2 109/5/2
f 106/1/2 107/1/2 110/1/2
f 109/5/2 106/5/2 110/5/2
f 107/5/2 108/5/2 111/5/2
f 110/1/2 107/1/2 111/1/2
f 111/5/2 108/5/2 112/5/2
f 113/5/2 114/5/2 117/5/2
f 114/1/2 115/1/2 118/1/2
f 117/5/2 114/5/2 118/5/2
f 115/5/2 116/5/2 119/5/2
f 118/1/2 115/1/2 119/1/2
f 119/5/2 116/5/2 120/5/2
f 121/5/2 122/5/2 125/5/2
f 122/1/2 123/1/2 126/1/2
f 125/5/2 122/5/2 126/5/2
f 123/5/2 124/5/2 127/5/2
f 126/1/2 123/1/2 127/1/2
f 127/5/2 124/5/2 128/5/2
f 129/5/2 130/5/2 133/5/2
f 130/1/2 131/1/2 134/1/2
f 133/5/2 130/5/2 134/5/2
f 131/5/2 132/5/2 135/5/2
f 134/1/2 131/1/2 135/1/2
f 135/5/2 132/5/2 136/5/2
f 137/5/2 138/5/2 141/5/2
f 138/1/2 139/1/2 142/1/2
f 141/5/2 138/5/2 142/5/2
f 139/5/2 140/5/2 143/5/2
f 142/1/2 139/1/2 143/1/2
f 143/5/2 140/5/2 144/5/2
f 148/5/3 146/5/3 145/5/3
f 149/5/3 146/5/3 148/5/3
f 152/5/3 148/5/3 147/5/3
f 153/3/3 149/3/3 148/3/3
f 153/5/3 148/5/3 152/5/3
f 154/5/3 150/5/3 149/5/3
f 154/3/3 149/3/3 153/3/3
f 155/5/3 150/5/3 154/5/3
f 158/5/3 152/5/3 151/5/3
f 159/3/3 153/3/3 152/3/3
f 159/5/3 152/5/3 158/5/3
f 160/3/3 153/3/3 159/3/3
f 161/4/3 154/4/3 153/4/3
f 161/3/3 153/3/3 160/3/3
f 162/3/3 155/3/3 154/3/3
f 162/4/3 154/4/3 161/4/3
f 163/5/3 156/5/3 155/5/3
f 163/3/3 155/3/3 162/3/3
f 164/5/3 156/5/3 163/5/3
f 166/2/3 160/2/3 159/2/3
f 166/4/3 161/4/3 160/4/3
f 166/2/3 159/2/3 158/2/3
f 167/2/3 162/2/3 161/2/3
f 167/4/3 161/4/3 166/4/3
f 168/4/3 163/4/3 162/4/3
f 168/2/3 162/2/3 167/2/3
f 169/3/3 164/3/3 163/3/3
f 169/4/3 163/4/3 168/4/3
f 170/5/3 165/5/3 164/5/3
f 170/3/3 164/3/3 169/3/3
f 171/5/3 165/5/3 170/5/3
f 173/2/3 169/2/3 168/2/3
f 173/2/3 168/2/3 167/2/3
f 173/2/3 167/2/3 166/2/3
f 174/2/3 169/2/3 173/2/3
f 175/4/3 170/4/3 169/4/3
f 175/2/3 169/2/3 174/2/3
f 176/3/3 171/3/3 170/3/3
f 176/4/3 170/4/3 175/4/3
f 177/5/3 172/5/3 171/5/3
f 177/3/3 171/3/3 176/3/3
f 178/5/3 172/5/3 177/5/3
f 180/2/3 166/2/3 158/2/3
f 180/2/3 173/2/3 166/2/3
f 181/1/3 174/1/3 173/1/3
f 181/2/3 173/2/3 180/2/3
f 182/2/3 176/2/3 175/2/3
f 182/1/3 174/1/3 181/1/3
f 182/2/3 175/2/3 174/2/3
f 183/2/3 176/2/3 182/2/3
f 184/4/3 177/4/3 176/4/3
f 184/2/3 176/2/3 183/2/3
f 185/3/3 178/3/3 177/3/3
f 185/4/3 177/4/3 184/4/3
f 186/3/3 178/3/3 185/3/3
f 187/2/3 180/2/3 158/2/3
f 188/1/3 181/1/3 180/1/3
f 188/2/3 180/2/3 187/2/3
f 188/1/3 183/1/3 182/1/3
f 188/1/3 182/1/3 181/1/3
f 189/2/3 186/2/3 185/2/3
f 189/1/3 183/1/3 188/1/3
f 189/2/3 184/2/3 183/2/3
f 189/2/3 185/2/3 184/2/3
f 190/2/3 186/2/3 189/2/3
f 191/2/3 186/2/3 190/2/3
f 192/3/3 178/3/3 186/3/3
f 192/2/3 186/2/3 191/2/3
f 193/5/3 179/5/3 178/5/3
f 193/3/3 178/3/3 192/3/3
f 194/5/3 179/5/3 193/5/3
f 195/5/3 158/5/3 157/5/3
f 195/2/3 187/2/3 158/2/3
f 196/1/3 188/1/3 187/1/3
f 196/2/3 187/2/3 195/2/3
f 196/1/3 189/1/3 188/1/3
f 196/1/3 190/1/3 189/1/3
f 197/2/3 191/2/3 190/2/3
f 197/1/3 190/1/3 196/1/3
f 198/5/3 192/5/3 191/5/3
f 198/2/3 191/2/3 197/2/3
f 198/5/3 193/5/3 192/5/3
f 199/5/3 193/5/3 198/5/3
f 200/5/3 195/5/3 157/5/3
f 201/1/3 197/1/3 196/1/3
f 201/5/3 195/5/3 200/5/3
f 201/1/3 196/1/3 195/1/3
f 202/1/3 197/1/3 201/1/3
f 203/1/3 197/1/3 202/1/3
f 204/5/3 198/5/3 197/5/3
f 204/1/3 197/1/3 203/1/3
f 205/5/3 198/5/3 204/5/3
f 206/5/3 202/5/3 201/5/3
f 207/1/3 203/1/3 202/1/3
f 207/5/3 202/5/3 206/5/3
f 208/1/3 203/1/3 207/1/3
f 209/1/3 203/1/3 208/1/3
f 210/5/3 204/5/3 203/5/3
f 210/1/3 203/1/3 209/1/3
f 211/5/3 204/5/3 210/5/3
f 212/5/3 208/5/3 207/5/3
f 213/1/3 209/1/3 208/1/3
f 213/5/3 208/5/3 212/5/3
f 214/5/3 210/5/3 209/5/3
f 214/1/3 209/1/3 213/1/3
f 215/5/3 210/5/3 214/5/3
f 216/5/3 214/5/3 213/5/3
f 217/5/3 214/5/3 216/5/3
f 218/5/4 219/5/4 221/5/4
f 221/5/4 219/5/4 222/5/4
f 220/5/4 221/5/4 225/5/4
f 221/3/4 222/3/4 226/3/4
f 225/5/4 221/5/4 226/5/4
f 222/5/4 223/5/4 227/5/4
f 226/3/4 222/3/4 227/3/4
f 227/5/4 223/5/4 228/5/4
f 224/5/4 225/5/4 231/5/4
f 225/3/4 226/3/4 232/3/4
f 231/5/4 225/5/4 232/5/4
f 232/3/4 226/3/4 233/3/4
f 226/4/4 227/4/4 234/4/4
f 233/3/4 226/3/4 234/3/4
f 227/3/4 228/3/4 235/3/4
f 234/4/4 227/4/4 235/4/4
f 228/5/4 229/5/4 236/5/4
f 235/3/4 228/3/4 236/3/4
f 236/5/4 229/5/4 237/5/4
f 232/2/4 233/2/4 239/2/4
f 233/4/4 234/4/4 239/4/4
f 231/2/4 232/2/4 239/2/4
f 234/2/4 235/2/4 240/2/4
f 239/4/4 234/4/4 240/4/4
f 235/4/4 236/4/4 241/4/4
f 240/2/4 235/2/4 241/2/4
f 236/3/4 237/3/4 242/3/4
f 241/4/4 236/4/4 242/4/4
f 237/5/4 238/5/4 243/5/4
f 242/3/4 237/3/4 243/3/4
f 243/5/4 238/5/4 244/5/4
f 241/2/4 242/2/4 246/2/4
f 240/2/4 241/2/4 246/2/4
f 239/2/4 240/2/4 246/2/4
f 246/2/4 242/2/4 247/2/4
f 242/4/4 243/4/4 248/4/4
f 247/2/4 242/2/4 248/2/4
f 243/3/4 244/3/4 249/3/4
f 248/4/4 243/4/4 249/4/4
f 244/5/4 245/5/4 250/5/4
f 249/3/4 244/3/4 250/3/4
f 250/5/4 245/5/4 251/5/4
f 231/2/4 239/2/4 253/2/4
f 239/2/4 246/2/4 253/2/4
f 246/1/4 247/1/4 254/1/4
f 253/2/4 246/2/4 254/2/4
f 248/2/4 249/2/4 255/2/4
f 254/1/4 247/1/4 255/1/4
f 247/2/4 248/2/4 255/2/4
f 255/2/4 249/2/4 256/2/4
f 249/4/4 250/4/4 257/4/4
f 256/2/4 249/2/4 257/2/4
f 250/3/4 251/3/4 258/3/4
f 257/4/4 250/4/4 258/4/4
f 258/3/4 251/3/4 259/3/4
f 231/2/4 253/2/4 260/2/4
f 253/1/4 254/1/4 261/1/4
f 260/2/4 253/2/4 261/2/4
f 255/1/4 256/1/4 261/1/4
f 254/1/4 255/1/4 261/1/4
f 258/2/4 259/2/4 262/2/4
f 261/1/4 256/1/4 262/1/4
f 256/2/4 257/2/4 262/2/4
f 257/2/4 258/2/4 262/2/4
f 262/2/4 259/2/4 263/2/4
f 263/2/4 259/2/4 264/2/4
f 259/3/4 251/3/4 265/3/4
f 264/2/4 259/2/4 265/2/4
f 251/5/4 252/5/4 266/5/4
f 265/3/4 251/3/4 266/3/4
f 266/5/4 252/5/4 267/5/4
f 230/5/4 231/5/4 268/5/4
f 231/2/4 260/2/4 268/2/4
f 260/1/4 261/1/4 269/1/4
f 268/2/4 260/2/4 269/2/4
f 261/1/4 262/1/4 269/1/4
f 262/1/4 263/1/4 269/1/4
f 263/2/4 264/2/4 270/2/4
f 269/1/4 263/1/4 270/1/4
f 264/5/4 265/5/4 271/5/4
f 270/2/4 264/2/4 271/2/4
f 265/5/4 266/5/4 271/5/4
f 271/5/4 266/5/4 272/5/4
f 230/5/4 268/5/4 273/5/4
f 268/4/4 269/4/4 274/4/4
f 273/5/4 268/5/4 274/5/4
f 269/1/4 270/1/4 275/1/4
f 274/4/4 269/4/4 275/4/4
f 275/1/4 270/1/4 276/1/4
f 270/5/4 271/5/4 277/5/4
f 276/1/4 270/1/4 277/1/4
f 277/5/4 271/5/4 278/5/4
f 274/5/4 275/5/4 279/5/4
f 275/1/4 276/1/4 280/1/4
f 279/5/4 275/5/4 280/5/4
f 280/1/4 276/1/4 281/1/4
f 281/1/4 276/1/4 282/1/4
f 276/5/4 277/5/4 283/5/4
f 282/1/4 276/1/4 283/1/4
f 283/5/4 277/5/4 284/5/4
f 280/5/4 281/5/4 285/5/4
f 281/1/4 282/1/4 286/1/4
f 285/5/4 281/5/4 286/5/4
f 282/5/4 283/5/4 287/5/4
f 286/1/4 282/1/4 287/1/4
f 287/5/4 283/5/4 288/5/4
f 286/5/4 287/5/4 289/5/4
f 289/5/4 287/5/4 290/5/4
f 293/5/5 292/5/5 291/5/5
f 294/5/5 292/5/5 293/5/5
f 295/1/5 294/1/5 293/1/5
f 296/1/5 294/1/5 295/1/5
f 297/5/5 296/5/5 295/5/5
f 298/5/5 296/5/5 297/5/5
f 303/5/5 300/5/5 299/5/5
f 304/5/5 300/5/5 303/5/5
f 305/5/5 302/5/5 301/5/5
f 306/5/5 302/5/5 305/5/5
f 307/1/5 304/1/5 303/1/5
f 308/1/5 304/1/5 307/1/5
f 309/1/5 306/1/5 305/1/5
f 310/1/5 306/1/5 309/1/5
f 311/5/5 308/5/5 307/5/5
f 312/5/5 308/5/5 311/5/5
f 313/5/5 310/5/5 309/5/5
f 314/5/5 310/5/5 313/5/5
f 319/5/5 316/5/5 315/5/5
f 320/5/5 316/5/5 319/5/5
f 321/5/5 318/5/5 317/5/5
f 322/5/5 318/5/5 321/5/5
f 323/1/5 320/1/5 319/1/5
f 324/1/5 320/1/5 323/1/5
f 325/1/5 322/1/5 321/1/5
f 326/1/5 322/1/5 325/1/5
f 327/5/5 324/5/5 323/5/5
f 328/5/5 324/5/5 327/5/5
f 329/5/5 326/5/5 325/5/5
f 330/5/5 326/5/5 329/5/5
f 335/5/5 332/5/5 331/5/5
f 336/5/5 332/5/5 335/5/5
f 337/5/5 334/5/5 333/5/5
f 338/5/5 334/5/5 337/5/5
f 339/1/5 336/1/5 335/1/5
f 340/1/5 336/1/5 339/1/5
f 341/1/5 338/1/5 337/1/5
f 342/1/5 338/1/5 341/1/5
f 343/5/5 340/5/5 339/5/5
f 344/5/5 340/5/5 343/5/5
f 345/5/5 342/5/5 341/5/5
f 346/5/5 342/5/5 345/5/5
f 347/5/6 348/5/6 351/5/6
f 351/5/6 348/5/6 352/5/6
f 349/5/6 350/5/6 353/5/6
f 353/5/6 350/5/6 354/5/6
f 351/1/6 352/1/6 355/1/6
f 355/1/6 352/1/6 356/1/6
f 353/1/6 354/1/6 357/1/6
f 357/1/6 354/1/6 358/1/6
f 355/5/6 356/5/6 359/5/6
f 359/5/6 356/5/6 360/5/6
f 357/5/6 358/5/6 361/5/6
f 361/5/6 358/5/6 362/5/6
f 363/5/6 364/5/6 367/5/6
f 367/5/6 364/5/6 368/5/6
f 365/5/6 366/5/6 369/5/6
f 369/5/6 366/5/6 370/5/6
f 367/1/6 368/1/6 371/1/6
f 371/1/6 368/1/6 372/1/6
f 369/1/6 370/1/6 373/1/6
f 373/1/6 370/1/6 374/1/6
f 371/5/6 372/5/6 375/5/6
f 375/5/6 372/5/6 376/5/6
f 373/5/6 374/5/6 377/5/6
f 377/5/6 374/5/6 378/5/6
f 379/5/6 380/5/6 383/5/6
f 383/5/6 380/5/6 384/5/6
f 381/5/6 382/5/6 385/5/6
f 385/5/6 382/5/6 386/5/6
f 383/1/6 384/1/6 387/1/6
f 387/1/6 384/1/6 388/1/6
f 385/1/6 386/1/6 389/1/6
f 389/1/6 386/1/6 390/1/6
f 387/5/6 388/5/6 391/5/6
f 391/5/6 388/5/6 392/5/6
f 389/5/6 390/5/6 393/5/6
f 393/5/6 390/5/6 394/5/6
f 395/5/6 396/5/6 399/5/6
f 399/5/6 396/5/6 400/5/6
f 397/5/6 398/5/6 401/5/6
f 401/5/6 398/5/6 402/5/6
f 399/1/6 400/1/6 403/1/6
f 403/1/6 400/1/6 404/1/6
f 401/1/6 402/1/6 405/1/6
f 405/1/6 402/1/6 406/1/6
f 403/5/6 404/5/6 407/5/6
f 407/5/6 404/5/6 408/5/6
f 405/5/6 406/5/6 409/5/6
f 409/5/6 406/5/6 410/5/6
f 411/5/6 412/5/6 415/5/6
f 415/5/6 412/5/6 416/5/6
f 413/5/6 414/5/6 417/5/6
f 417/5/6 414/5/6 418/5/6
f 415/1/6 416/1/6 419/1/6
f 419/1/6 416/1/6 420/1/6
f 417/1/6 418/1/6 421/1/6
f 421/1/6 418/1/6 422/1/6
f 419/5/6 420/5/6 423/5/6
f 423/5/6 420/5/6 424/5/6
f 421/5/6 422/5/6 425/5/6
f 425/5/6 422/5/6 426/5/6
f 427/5/6 428/5/6 429/5/6
f 429/5/6 428/5/6 430/5/6
f 429/1/6 430/1/6 431/1/6
f 431/1/6 430/1/6 432/1/6
f 431/5/6 432/5/6 433/5/6
f 433/5/6 432/5/6 434/5/6
